<?xml version="1.0" encoding="utf-8"?>
<svg id="master-artboard" viewBox="0 0 350 350" version="1.0" xmlns="http://www.w3.org/2000/svg" x="0px" y="0px" width="350px" height="350px" enable-background="new 0 0 1400 980"><rect id="ee-background" x="0" y="0" width="350" height="350" style="fill: white; fill-opacity: 0; pointer-events: none;"/>
<g id="XMLID_690_" transform="matrix(1, 0, 0, 1, -59.99769592285156, -123.99528503417969)">
		<path id="XMLID_1275_" fill="#F9C68C" d="M139.7,281.8c0,0-13.1-6.8-14,10.9c-0.9,17.8,13.1,32.9,28.7,31.5"/>
	</g><path id="XMLID_1198_" fill="#713517" d="M152.3,326.4c-6.7,0-13.2-2.7-18.6-7.9c-6.9-6.7-10.6-16.1-10.1-25.9&#10;&#9;&#9;&#9;c0.3-6.6,2.3-10.9,5.9-13c5-2.8,10.9,0.2,11.2,0.3l-1.9,3.6c0,0-4.2-2.1-7.2-0.4c-2.8,1.6-3.6,6.1-3.8,9.6&#10;&#9;&#9;&#9;c-0.4,8.5,2.9,17,8.8,22.7c5,4.8,11.3,7.2,17.6,6.6l0.4,4.1C153.8,326.4,153.1,326.4,152.3,326.4z" transform="matrix(1, 0, 0, 1, -59.99769592285156, -123.99528503417969)"/><path id="XMLID_1179_" fill="#DC4647" d="M310.4,446.2H158l0,0c0-30.2,24.5-54.7,54.7-54.7h43C285.9,391.5,310.4,416,310.4,446.2&#10;&#9;&#9;&#9;L310.4,446.2z" transform="matrix(1, 0, 0, 1, -59.99769592285156, -123.99528503417969)"/><path id="XMLID_1194_" fill="#713517" d="M312.5,448.3H156v-2.1c0-31.3,25.5-56.8,56.8-56.8h43c31.3,0,56.8,25.5,56.8,56.8V448.3z&#10;&#9;&#9;&#9; M160.1,444.2h148.2c-1.1-28.1-24.3-50.6-52.6-50.6h-43C184.4,393.5,161.2,416.1,160.1,444.2z" transform="matrix(1, 0, 0, 1, -59.99769592285156, -123.99528503417969)"/><path id="XMLID_1274_" fill="#F9C68C" d="M251.6,390.1v-23.6h-34.8v23.6C216.8,412.2,251.6,412.2,251.6,390.1z" transform="matrix(1, 0, 0, 1, -59.99769592285156, -123.99528503417969)"/><path id="XMLID_1191_" fill="#713517" d="M234.2,408.7c-9.7,0-19.4-6.4-19.4-18.6v-25.7h38.9v25.7&#10;&#9;&#9;&#9;C253.7,402.3,243.9,408.7,234.2,408.7z M218.9,368.5v21.6c0,10,8,14.5,15.3,14.5c7.4,0,15.3-4.5,15.3-14.5v-21.6H218.9z" transform="matrix(1, 0, 0, 1, -59.99769592285156, -123.99528503417969)"/><path id="XMLID_1273_" fill="#F9C68C" d="M328.7,281.8c0,0,13.1-6.8,14,10.9c0.9,17.8-13.1,32.9-28.7,31.5" transform="matrix(1, 0, 0, 1, -59.99769592285156, -123.99528503417969)"/><path id="XMLID_1272_" fill="#F9C68C" d="M328.7,269c0,52.1-42.3,110.9-94.5,110.9c-52.2,0-94.5-58.7-94.5-110.9&#10;&#9;&#9;&#9;s42.3-77.9,94.5-77.9C286.4,191.1,328.7,216.9,328.7,269z" transform="matrix(1, 0, 0, 1, -59.99769592285156, -123.99528503417969)"/><path id="XMLID_1188_" fill="#713517" d="M234.2,382c-54.4,0-96.5-60.7-96.5-112.9c0-25.2,9.8-46,28.5-60.1&#10;&#9;&#9;&#9;c17.1-13,40.6-19.8,68-19.8c27.4,0,50.9,6.9,68,19.8c18.6,14.1,28.5,34.9,28.5,60.1C330.7,321.3,288.6,382,234.2,382z&#10;&#9;&#9;&#9; M234.2,193.2c-44.7,0-92.4,19.9-92.4,75.8c0,25,10.2,52.6,27.2,73.7c18.3,22.6,41.4,35.1,65.2,35.1c23.8,0,46.9-12.5,65.2-35.1&#10;&#9;&#9;&#9;c17-21.1,27.2-48.7,27.2-73.7C326.6,213.1,278.9,193.2,234.2,193.2z" transform="matrix(1, 0, 0, 1, -59.99769592285156, -123.99528503417969)"/><path id="XMLID_1187_" fill="#713517" d="M316.1,326.4c-0.7,0-1.5,0-2.2-0.1l0.4-4.1c6.3,0.6,12.5-1.8,17.6-6.6&#10;&#9;&#9;&#9;c6-5.7,9.3-14.2,8.8-22.7c-0.2-3.5-1-8-3.8-9.6c-3-1.7-7.2,0.4-7.2,0.4l-1.9-3.6c0.2-0.1,6.2-3.2,11.2-0.3c3.6,2,5.5,6.4,5.9,13&#10;&#9;&#9;&#9;c0.5,9.8-3.2,19.2-10.1,25.9C329.4,323.7,322.8,326.4,316.1,326.4z" transform="matrix(1, 0, 0, 1, -59.99769592285156, -123.99528503417969)"/><path id="XMLID_1271_" fill="#7B4732" d="M303.9,163.6l13.2-20.7l-34.8,10.5l0,0c-6.7-1.9-13.8-3-21.1-3h-52.9&#10;&#9;&#9;&#9;c-41.8,0-75.7,33.9-75.7,75.7v54.4c8.1,9,16,31.5,16,31.5v-40.8c0-13,10.6-23.6,23.6-23.6h62.5l17.3-31.9l7.5,32.6h38&#10;&#9;&#9;&#9;c13,0,23.6,10.6,23.6,23.6v36.7l15.7-27.6v-54.9C336.9,200.2,323.8,177.3,303.9,163.6z" transform="matrix(1, 0, 0, 1, -59.99769592285156, -123.99528503417969)"/><path id="XMLID_1184_" fill="#713517" d="M148.6,314c-0.8,0-1.6-0.5-1.9-1.3c-5.1-13.2-12-28.4-14.4-30.2&#10;&#9;&#9;&#9;c-0.4-0.1-0.8-0.2-1.1-0.5c-0.4-0.4-0.7-0.9-0.7-1.5v-54.4c0-42.9,34.9-77.8,77.8-77.8h52.9c7.1,0,14.2,1,21.1,2.9l34.2-10.3&#10;&#9;&#9;&#9;c0.8-0.2,1.7,0,2.2,0.7c0.5,0.7,0.6,1.6,0.1,2.3l-12.1,19.1c20.2,14.6,32.3,38.1,32.3,63.1V281c0,0.4-0.1,0.8-0.3,1.1&#10;&#9;&#9;&#9;c-0.1,0.2-11.2,17-15.6,27.3c-0.4,0.9-1.3,1.4-2.3,1.2c-1-0.2-1.6-1-1.6-2v-35.5c0-12.6-10.2-22.8-22.8-22.8h-36.7&#10;&#9;&#9;&#9;c-1,0-1.8-0.7-2-1.6l-6.3-27.3l-14.7,27.1c-0.4,0.7-1.1,1.1-1.8,1.1h-61.3c-12.6,0-22.8,10.2-22.8,22.8V312c0,1-0.7,1.8-1.7,2&#10;&#9;&#9;&#9;C148.8,314,148.7,314,148.6,314z M134.6,279.3c2.1,1.7,5.6,6.8,11.9,22v-28.8c0-14.8,12.1-26.9,26.9-26.9h60.1l16.8-30.8&#10;&#9;&#9;&#9;c0.4-0.7,1.2-1.2,2.1-1.1c0.8,0.1,1.5,0.7,1.7,1.6l7.2,31h35.1c14.8,0,26.9,12.1,26.9,26.9v26.7c4.5-8.4,10.2-17.2,11.6-19.4&#10;&#9;&#9;&#9;v-54.2c0-24.3-12-47.1-32.1-60.8c-0.9-0.6-1.2-1.9-0.6-2.8l10.2-16.1l-29.2,8.8c-0.4,0.2-1,0.3-1.5,0.1&#10;&#9;&#9;&#9;c-6.7-1.9-13.6-2.9-20.6-2.9h-52.9c-40.6,0-73.7,33-73.7,73.7V279.3z" transform="matrix(1, 0, 0, 1, -59.99769592285156, -123.99528503417969)"/><g id="XMLID_661_" transform="matrix(1, 0, 0, 1, -59.99769592285156, -123.99528503417969)">
			<path d="M 205.8 288.299988 A 6.8 6.8 0 0 1 199 295.099988 A 6.8 6.8 0 0 1 192.2 288.299988 A 6.8 6.8 0 0 1 199 281.499988 A 6.8 6.8 0 0 1 205.8 288.299988 Z" id="XMLID_1270_" fill="#713517"/>
		</g><path d="M 276.3 288.299988 A 6.8 6.8 0 0 1 269.5 295.099988 A 6.8 6.8 0 0 1 262.7 288.299988 A 6.8 6.8 0 0 1 269.5 281.499988 A 6.8 6.8 0 0 1 276.3 288.299988 Z" id="XMLID_1269_" fill="#713517" transform="matrix(1, 0, 0, 1, -59.99769592285156, -123.99528503417969)"/><g id="XMLID_731_" transform="matrix(1, 0, 0, 1, -59.99769592285156, -123.99528503417969)">
			<path id="XMLID_1268_" fill="#713517" d="M205.8,332.7h56.8c0,0-4.6,24.3-28.4,24.4C211.3,357.2,205.8,332.7,205.8,332.7z"/>
		</g><path id="XMLID_1267_" fill="#EF5353" d="M215.6,349.8c0,0,7-8.2,20.7-7.4c13.7,0.8,17.9,6.3,17.9,6.3s-4.3,9.2-18.3,8.3&#10;&#9;&#9;&#9;&#9;C222,356.1,215.6,349.8,215.6,349.8z" transform="matrix(1, 0, 0, 1, -59.99769592285156, -123.99528503417969)"/><path id="XMLID_1181_" fill="#713517" d="M234.1,359.1c-24.2,0-30.2-25.7-30.3-26c-0.1-0.6,0-1.2,0.4-1.7c0.4-0.5,1-0.8,1.6-0.8&#10;&#9;&#9;&#9;h56.8c0.6,0,1.2,0.3,1.6,0.7c0.4,0.5,0.5,1.1,0.4,1.7c0,0.3-5.2,26-30.4,26.1C234.2,359.1,234.1,359.1,234.1,359.1z M208.6,334.7&#10;&#9;&#9;&#9;c2,5.9,8.6,20.3,25.5,20.3c0,0,0.1,0,0.1,0c17.5-0.1,23.9-14.4,25.7-20.3H208.6z" transform="matrix(1, 0, 0, 1, -59.99769592285156, -123.99528503417969)"/><path d="M 237.299997 309.200012 A 3.1 3.1 0 0 1 234.199997 312.300012 A 3.1 3.1 0 0 1 231.099997 309.200012 A 3.1 3.1 0 0 1 234.199997 306.100012 A 3.1 3.1 0 0 1 237.299997 309.200012 Z" id="XMLID_1266_" fill="#EF5353" transform="matrix(1, 0, 0, 1, -59.99769592285156, -123.99528503417969)"/>






















</svg>