<?xml version="1.0" encoding="utf-8"?>
<svg id="master-artboard" viewBox="0 0 350 350" version="1.0" xmlns="http://www.w3.org/2000/svg" x="0px" y="0px" width="350px" height="350px" enable-background="new 0 0 1400 980"><rect id="ee-background" x="0" y="0" width="350" height="350" style="fill: white; fill-opacity: 0; pointer-events: none;"/>















<g id="XMLID_761_" transform="matrix(1, 0, 0, 1, -366.5181121826172, -120.75208282470703)">
		<path id="XMLID_1161_" fill="#CD5227" d="M632.5,323.4c0,0-10.7,42.2-3.8,68.1c6.8,25.8,17.1,36.8,17.1,36.8h-28.5H471h-28.5&#10;&#9;&#9;&#9;c0,0,10.3-10.9,17.1-36.8c6.8-25.8-3.8-68.1-3.8-68.1H632.5z"/>
	</g><path id="XMLID_1164_" fill="#713517" d="M471,430.3h-28.5c-0.8,0-1.6-0.5-1.9-1.2c-0.3-0.8-0.2-1.6,0.4-2.2&#10;&#9;&#9;&#9;c0.1-0.1,10.1-11,16.7-35.9c6.6-25-3.7-66.6-3.8-67l4-1c0.4,1.7,10.7,43.1,3.8,69.1c-4.8,18.2-11.3,29.1-14.9,34.2H471V430.3z" transform="matrix(1, 0, 0, 1, -366.5181121826172, -120.75208282470703)"/><path id="XMLID_1163_" fill="#713517" d="M645.8,430.3h-28.5v-4.1h24.3c-3.6-5.1-10.1-16-14.9-34.2c-6.9-26,3.4-67.3,3.8-69.1l4,1&#10;&#9;&#9;&#9;c-0.1,0.4-10.5,42-3.8,67c6.6,24.9,16.6,35.8,16.7,35.9c0.6,0.6,0.7,1.5,0.4,2.2C647.4,429.8,646.6,430.3,645.8,430.3z" transform="matrix(1, 0, 0, 1, -366.5181121826172, -120.75208282470703)"/><g id="XMLID_760_" transform="matrix(1, 0, 0, 1, -366.5181121826172, -120.75208282470703)">
			<path id="XMLID_1256_" fill="#F9C68C" d="M449.7,281.8c0,0-13.1-6.8-14,10.9c-0.9,17.8,13.1,32.9,28.7,31.5"/>
		</g><path id="XMLID_1162_" fill="#713517" d="M462.2,326.4c-6.7,0-13.2-2.7-18.6-7.9c-6.9-6.7-10.6-16.1-10.1-25.9&#10;&#9;&#9;&#9;&#9;c0.3-6.6,2.3-10.9,5.9-13c5-2.9,10.9,0.2,11.2,0.3l-1.9,3.6c0,0-4.2-2.1-7.2-0.4c-2.8,1.6-3.6,6.1-3.8,9.6&#10;&#9;&#9;&#9;&#9;c-0.4,8.5,2.9,17,8.8,22.7c5,4.9,11.3,7.2,17.6,6.6l0.4,4.1C463.7,326.4,463,326.4,462.2,326.4z" transform="matrix(1, 0, 0, 1, -366.5181121826172, -120.75208282470703)"/><path id="XMLID_1150_" fill="#40AFB0" d="M620.4,446.2H467.9l0,0c0-30.2,24.5-54.7,54.7-54.7h43&#10;&#9;&#9;&#9;&#9;C595.9,391.5,620.4,416,620.4,446.2L620.4,446.2z" transform="matrix(1, 0, 0, 1, -366.5181121826172, -120.75208282470703)"/><path id="XMLID_1158_" fill="#713517" d="M622.4,448.3H465.9v-2.1c0-31.3,25.5-56.8,56.8-56.8h43c31.3,0,56.8,25.5,56.8,56.8&#10;&#9;&#9;&#9;&#9;V448.3z M470,444.2h148.2c-1.1-28.1-24.3-50.6-52.6-50.6h-43C494.3,393.5,471.1,416.1,470,444.2z" transform="matrix(1, 0, 0, 1, -366.5181121826172, -120.75208282470703)"/><path id="XMLID_1255_" fill="#F9C68C" d="M561.5,390.1l0-23.6h-34.8v23.6C526.8,412.2,561.5,412.2,561.5,390.1z" transform="matrix(1, 0, 0, 1, -366.5181121826172, -120.75208282470703)"/><path id="XMLID_1155_" fill="#713517" d="M544.1,408.7c-9.7,0-19.4-6.4-19.4-18.6v-25.7h38.9v25.7&#10;&#9;&#9;&#9;&#9;C563.6,402.3,553.8,408.7,544.1,408.7z M528.8,368.5v21.6c0,10,8,14.5,15.3,14.5s15.3-4.5,15.3-14.5v-21.6H528.8z" transform="matrix(1, 0, 0, 1, -366.5181121826172, -120.75208282470703)"/><path id="XMLID_1254_" fill="#F9C68C" d="M638.6,281.8c0,0,13.1-6.8,14,10.9c0.9,17.8-13.1,32.9-28.7,31.5" transform="matrix(1, 0, 0, 1, -366.5181121826172, -120.75208282470703)"/><path id="XMLID_1253_" fill="#F9C68C" d="M638.6,269c0,52.1-42.3,110.9-94.5,110.9s-94.5-58.7-94.5-110.9s42.3-77.9,94.5-77.9&#10;&#9;&#9;&#9;&#9;S638.6,216.9,638.6,269z" transform="matrix(1, 0, 0, 1, -366.5181121826172, -120.75208282470703)"/><path id="XMLID_1152_" fill="#713517" d="M544.1,382c-54.4,0-96.5-60.7-96.5-112.9c0-25.2,9.8-46,28.5-60.1&#10;&#9;&#9;&#9;&#9;c17.1-13,40.6-19.8,68-19.8c27.4,0,50.9,6.9,68,19.8c18.6,14.1,28.5,34.9,28.5,60.1C640.7,321.3,598.5,382,544.1,382z&#10;&#9;&#9;&#9;&#9; M544.1,193.2c-44.7,0-92.4,19.9-92.4,75.8c0,25,10.2,52.6,27.2,73.7c18.3,22.6,41.4,35.1,65.2,35.1c23.8,0,46.9-12.5,65.2-35.1&#10;&#9;&#9;&#9;&#9;c17-21.1,27.2-48.7,27.2-73.7C636.6,213.1,588.8,193.2,544.1,193.2z" transform="matrix(1, 0, 0, 1, -366.5181121826172, -120.75208282470703)"/><path id="XMLID_1151_" fill="#713517" d="M626,326.4c-0.7,0-1.5,0-2.2-0.1l0.4-4.1c6.3,0.6,12.5-1.8,17.6-6.6&#10;&#9;&#9;&#9;&#9;c6-5.7,9.3-14.2,8.8-22.7c-0.2-3.5-1-8-3.8-9.6c-3-1.7-7.2,0.4-7.2,0.4l-1.9-3.6c0.2-0.1,6.2-3.2,11.2-0.3c3.6,2,5.5,6.4,5.9,13&#10;&#9;&#9;&#9;&#9;c0.5,9.8-3.2,19.2-10.1,25.9C639.3,323.7,632.8,326.4,626,326.4z" transform="matrix(1, 0, 0, 1, -366.5181121826172, -120.75208282470703)"/><path id="XMLID_1143_" fill="#F3712A" d="M613.8,163.6l13.2-20.7l-34.8,10.5l0,0c-6.7-1.9-13.8-3-21.1-3h-52.9&#10;&#9;&#9;&#9;&#9;c-41.8,0-75.7,33.9-75.7,75.7v54.4c7.5,39.6,16.2,76.5,16.2,76.5l-0.2-84.6c0-13.7,11.1-24.9,24.9-24.9h25&#10;&#9;&#9;&#9;&#9;c22.4,0,42.9-12.2,53.6-31.9v0v0c4.4,19.1,21.4,32.6,40.9,32.6h3.3c13.7,0,24.9,11.1,24.9,24.9l-3.7,80.1&#10;&#9;&#9;&#9;&#9;c4.5-10.6,19.5-72.3,19.5-72.3v-54.9C646.8,200.2,633.7,177.3,613.8,163.6z" transform="matrix(1, 0, 0, 1, -366.5181121826172, -120.75208282470703)"/><path id="XMLID_1147_" fill="#713517" d="M461.3,359.1c-0.9,0-1.6-0.5-1.9-1.4c-0.1-0.2-7.9-22-13.5-49.7&#10;&#9;&#9;&#9;&#9;c-3.6-17.6-5.4-35.8-5.4-54.1v-27.8c0-42.9,34.9-77.8,77.8-77.8h52.9c7.1,0,14.2,1,21.1,2.9l34.2-10.3c0.8-0.2,1.7,0,2.2,0.7&#10;&#9;&#9;&#9;&#9;c0.5,0.7,0.6,1.6,0.1,2.3l-12.1,19.1c20.2,14.6,32.3,38.1,32.3,63.1v33.7c0,14.4-1.8,28.8-5.3,42.7c-2.8,11-5.7,21.1-8.5,30.9&#10;&#9;&#9;&#9;&#9;c-2,7.1-4,13.7-5.7,20.3c-0.3,1-1.3,1.7-2.3,1.5c-1-0.2-1.8-1.1-1.7-2.1l3.7-80.1c0-12.5-10.2-22.7-22.8-22.7h-3.3&#10;&#9;&#9;&#9;&#9;c-19,0-35.5-11.9-41.6-29.5c-11.6,17.9-31.4,28.8-53,28.8h-25c-12.6,0-22.8,10.2-22.8,22.8l2.8,84.5c0,1-0.7,1.9-1.7,2.1&#10;&#9;&#9;&#9;&#9;C461.5,359.1,461.4,359.1,461.3,359.1z M518.2,152.5c-40.6,0-73.7,33-73.7,73.7v27.8c0,18,1.8,36,5.3,53.3&#10;&#9;&#9;&#9;&#9;c2.8,14,6.3,26.4,8.9,35.3l-2.3-70c0-14.9,12.1-27,26.9-27h25c21.6,0,41.5-11.8,51.8-30.8c0.4-0.7,1.2-1.2,2.1-1.1&#10;&#9;&#9;&#9;&#9;c0.8,0.1,1.5,0.7,1.7,1.6c4.2,18.2,20.2,31,38.9,31h3.3c14.8,0,26.9,12.1,26.9,26.9l-2.9,62.2c0.3-1,0.6-2,0.9-3.1&#10;&#9;&#9;&#9;&#9;c2.8-9.7,5.7-19.8,8.5-30.7c3.4-13.6,5.1-27.6,5.1-41.7v-33.7c0-24.3-12-47.1-32.1-60.8c-0.9-0.6-1.2-1.9-0.6-2.8l10.2-16.1&#10;&#9;&#9;&#9;&#9;l-29.2,8.8c-0.4,0.2-1,0.3-1.5,0.1c-6.7-1.9-13.6-2.9-20.6-2.9H518.2z" transform="matrix(1, 0, 0, 1, -366.5181121826172, -120.75208282470703)"/><g id="XMLID_744_" transform="matrix(1, 0, 0, 1, -366.5181121826172, -120.75208282470703)">
				<path d="M 515.699994 288.299988 A 6.8 6.8 0 0 1 508.899994 295.099988 A 6.8 6.8 0 0 1 502.099994 288.299988 A 6.8 6.8 0 0 1 508.899994 281.499988 A 6.8 6.8 0 0 1 515.699994 288.299988 Z" id="XMLID_1252_" fill="#713517"/>
			</g><path d="M 586.200025 288.299988 A 6.8 6.8 0 0 1 579.400024 295.099988 A 6.8 6.8 0 0 1 572.600024 288.299988 A 6.8 6.8 0 0 1 579.400024 281.499988 A 6.8 6.8 0 0 1 586.200025 288.299988 Z" id="XMLID_1251_" fill="#713517" transform="matrix(1, 0, 0, 1, -366.5181121826172, -120.75208282470703)"/><g id="XMLID_741_" transform="matrix(1, 0, 0, 1, -366.5181121826172, -120.75208282470703)">
				<path id="XMLID_1250_" fill="#713517" d="M515.7,332.7h56.8c0,0-4.6,24.3-28.4,24.4C521.2,357.2,515.7,332.7,515.7,332.7z"/>
			</g><path id="XMLID_1249_" fill="#EF5353" d="M525.5,349.8c0,0,7-8.2,20.7-7.4c13.7,0.8,17.9,6.3,17.9,6.3s-4.3,9.2-18.3,8.3&#10;&#9;&#9;&#9;&#9;&#9;C531.9,356.1,525.5,349.8,525.5,349.8z" transform="matrix(1, 0, 0, 1, -366.5181121826172, -120.75208282470703)"/><path id="XMLID_1144_" fill="#713517" d="M544,359.1c-24.2,0-30.2-25.7-30.3-26c-0.1-0.6,0-1.2,0.4-1.7c0.4-0.5,1-0.8,1.6-0.8&#10;&#9;&#9;&#9;&#9;h56.8c0.6,0,1.2,0.3,1.6,0.7c0.4,0.5,0.5,1.1,0.4,1.7c0,0.3-5.2,26-30.4,26.1C544.1,359.1,544.1,359.1,544,359.1z M518.5,334.7&#10;&#9;&#9;&#9;&#9;c2,6,8.7,20.4,25.7,20.3c17.7-0.1,23.9-14.4,25.8-20.3H518.5z" transform="matrix(1, 0, 0, 1, -366.5181121826172, -120.75208282470703)"/><path d="M 547.199975 309.200012 A 3.1 3.1 0 0 1 544.099976 312.300012 A 3.1 3.1 0 0 1 540.999976 309.200012 A 3.1 3.1 0 0 1 544.099976 306.100012 A 3.1 3.1 0 0 1 547.199975 309.200012 Z" id="XMLID_1248_" fill="#EF5353" transform="matrix(1, 0, 0, 1, -366.5181121826172, -120.75208282470703)"/>







</svg>