<?xml version="1.0" encoding="utf-8"?>
<svg id="master-artboard" viewBox="0 0 350 350" version="1.0" xmlns="http://www.w3.org/2000/svg" x="0px" y="0px" width="350px" height="350px" enable-background="new 0 0 1400 980"><rect id="ee-background" x="0" y="0" width="350" height="350" style="fill: white; fill-opacity: 0; pointer-events: none;"/>

<path id="XMLID_1265_" fill="#F9C68C" d="M752.8,281.8c0,0-13.1-6.8-14,10.9c-0.9,17.8,13.1,32.9,28.7,31.5" transform="matrix(1, 0, 0, 1, -671.9498901367188, -112.2284164428711)"/>
<path id="XMLID_1180_" fill="#713517" d="M765.4,326.4c-6.7,0-13.2-2.7-18.6-7.9c-6.9-6.7-10.6-16.1-10.1-25.9&#10;&#9;&#9;c0.3-6.6,2.3-10.9,5.9-13c5-2.8,10.9,0.2,11.2,0.3l-1.9,3.6c0,0-4.2-2.1-7.2-0.4c-2.8,1.6-3.6,6.1-3.8,9.6&#10;&#9;&#9;c-0.4,8.5,2.9,17,8.8,22.7c5,4.8,11.3,7.2,17.6,6.6l0.4,4.1C766.9,326.4,766.1,326.4,765.4,326.4z" transform="matrix(1, 0, 0, 1, -671.9498901367188, -112.2284164428711)"/>
<path id="XMLID_1165_" fill="#85B440" d="M923.5,446.2H771l0,0c0-30.2,24.5-54.7,54.7-54.7h43C899,391.5,923.5,416,923.5,446.2&#10;&#9;&#9;L923.5,446.2z" transform="matrix(1, 0, 0, 1, -671.9498901367188, -112.2284164428711)"/>
<path id="XMLID_1176_" fill="#713517" d="M925.5,448.3H769v-2.1c0-31.3,25.5-56.8,56.8-56.8h43c31.3,0,56.8,25.5,56.8,56.8V448.3z&#10;&#9;&#9; M773.1,444.2h148.2c-1.1-28.1-24.3-50.6-52.6-50.6h-43C797.4,393.5,774.2,416.1,773.1,444.2z" transform="matrix(1, 0, 0, 1, -671.9498901367188, -112.2284164428711)"/>
<path id="XMLID_1264_" fill="#F9C68C" d="M864.7,390.1v-23.6h-34.8v23.6C829.9,412.2,864.7,412.2,864.7,390.1z" transform="matrix(1, 0, 0, 1, -671.9498901367188, -112.2284164428711)"/>
<path id="XMLID_1173_" fill="#713517" d="M847.3,408.7c-9.7,0-19.4-6.4-19.4-18.6v-25.7h38.9v25.7&#10;&#9;&#9;C866.7,402.3,856.9,408.7,847.3,408.7z M831.9,368.5v21.6c0,10,8,14.5,15.3,14.5c7.4,0,15.3-4.5,15.3-14.5v-21.6H831.9z" transform="matrix(1, 0, 0, 1, -671.9498901367188, -112.2284164428711)"/>
<path id="XMLID_1263_" fill="#F9C68C" d="M941.7,281.8c0,0,13.1-6.8,14,10.9c0.9,17.8-13.1,32.9-28.7,31.5" transform="matrix(1, 0, 0, 1, -671.9498901367188, -112.2284164428711)"/>
<path id="XMLID_1262_" fill="#F9C68C" d="M941.7,269c0,52.1-42.3,110.9-94.5,110.9s-94.5-58.7-94.5-110.9s42.3-77.9,94.5-77.9&#10;&#9;&#9;S941.7,216.9,941.7,269z" transform="matrix(1, 0, 0, 1, -671.9498901367188, -112.2284164428711)"/>
<path id="XMLID_1170_" fill="#713517" d="M847.3,382c-54.4,0-96.5-60.7-96.5-112.9c0-25.2,9.8-46,28.5-60.1&#10;&#9;&#9;c17.1-13,40.6-19.8,68-19.8s50.9,6.9,68,19.8c18.6,14.1,28.5,34.9,28.5,60.1C943.8,321.3,901.6,382,847.3,382z M847.3,193.2&#10;&#9;&#9;c-44.7,0-92.4,19.9-92.4,75.8c0,25,10.2,52.6,27.2,73.7c18.3,22.6,41.4,35.1,65.2,35.1c23.8,0,46.9-12.5,65.2-35.1&#10;&#9;&#9;c17-21.1,27.2-48.7,27.2-73.7C939.7,213.1,891.9,193.2,847.3,193.2z" transform="matrix(1, 0, 0, 1, -671.9498901367188, -112.2284164428711)"/>
<path id="XMLID_1169_" fill="#713517" d="M929.2,326.4c-0.7,0-1.5,0-2.2-0.1l0.4-4.1c6.3,0.6,12.5-1.8,17.6-6.6&#10;&#9;&#9;c6-5.7,9.3-14.2,8.8-22.7c-0.2-3.5-1-8-3.8-9.6c-3-1.7-7.2,0.4-7.2,0.4l-1.9-3.6c0.2-0.1,6.2-3.2,11.2-0.3c3.6,2,5.5,6.4,5.9,13&#10;&#9;&#9;c0.5,9.8-3.2,19.2-10.1,25.9C942.4,323.7,935.9,326.4,929.2,326.4z" transform="matrix(1, 0, 0, 1, -671.9498901367188, -112.2284164428711)"/>
<g id="XMLID_775_" transform="matrix(1, 0, 0, 1, -671.9498901367188, -112.2284164428711)">
		<path d="M 818.8 288.299988 A 6.8 6.8 0 0 1 812 295.099988 A 6.8 6.8 0 0 1 805.2 288.299988 A 6.8 6.8 0 0 1 812 281.499988 A 6.8 6.8 0 0 1 818.8 288.299988 Z" id="XMLID_1261_" fill="#713517"/>
	</g><path d="M 889.3 288.299988 A 6.8 6.8 0 0 1 882.5 295.099988 A 6.8 6.8 0 0 1 875.7 288.299988 A 6.8 6.8 0 0 1 882.5 281.499988 A 6.8 6.8 0 0 1 889.3 288.299988 Z" id="XMLID_1260_" fill="#713517" transform="matrix(1, 0, 0, 1, -671.9498901367188, -112.2284164428711)"/>
<g id="XMLID_766_" transform="matrix(1, 0, 0, 1, -671.9498901367188, -112.2284164428711)">
		<path id="XMLID_1259_" fill="#713517" d="M818.9,332.7h56.8c0,0-4.6,24.3-28.4,24.4C824.3,357.2,818.9,332.7,818.9,332.7z"/>
	</g><path id="XMLID_1258_" fill="#EF5353" d="M828.6,349.8c0,0,7-8.2,20.7-7.4c13.7,0.8,17.9,6.3,17.9,6.3s-4.3,9.2-18.3,8.3&#10;&#9;&#9;&#9;C835.1,356.1,828.6,349.8,828.6,349.8z" transform="matrix(1, 0, 0, 1, -671.9498901367188, -112.2284164428711)"/>
<path id="XMLID_1166_" fill="#713517" d="M847.1,359.1c-24.2,0-30.2-25.7-30.3-26c-0.1-0.6,0-1.2,0.4-1.7c0.4-0.5,1-0.8,1.6-0.8&#10;&#9;&#9;h56.8c0.6,0,1.2,0.3,1.6,0.7c0.4,0.5,0.5,1.1,0.4,1.7c0,0.3-5.2,26-30.4,26.1C847.2,359.1,847.2,359.1,847.1,359.1z M821.6,334.7&#10;&#9;&#9;c2,5.9,8.6,20.3,25.5,20.3c0,0,0.1,0,0.1,0c17.5-0.1,23.9-14.4,25.7-20.3H821.6z" transform="matrix(1, 0, 0, 1, -671.9498901367188, -112.2284164428711)"/>
<path d="M 850.399988 309.200012 A 3.1 3.1 0 0 1 847.299988 312.300012 A 3.1 3.1 0 0 1 844.199988 309.200012 A 3.1 3.1 0 0 1 847.299988 306.100012 A 3.1 3.1 0 0 1 850.399988 309.200012 Z" id="XMLID_1257_" fill="#EF5353" transform="matrix(1, 0, 0, 1, -671.9498901367188, -112.2284164428711)"/>

<path id="XMLID_1138_" fill="#7B4732" d="M955.4,246.2c5.3-4.5,8.6-11.2,8.6-18.7c0-10.6-6.6-19.6-16-23.1&#10;&#9;&#9;c2.4-3.8,3.8-8.3,3.8-13.2c0-13.7-11.1-24.7-24.7-24.7c-0.8,0-1.5,0-2.3,0.1c-2.1-16.1-15.8-28.6-32.5-28.6c-5,0-9.8,1.1-14,3.1&#10;&#9;&#9;c-5.8-9.3-16.1-15.5-27.9-15.5c-12.9,0-24.1,7.5-29.4,18.3c-5.3-3.7-11.8-5.9-18.8-5.9c-16.7,0-30.5,12.5-32.5,28.6&#10;&#9;&#9;c-0.7-0.1-1.5-0.1-2.3-0.1c-13.7,0-24.7,11.1-24.7,24.7c0,4.9,1.4,9.4,3.8,13.2c-9.3,3.5-16,12.5-16,23.1c0,7.5,3.3,14.2,8.6,18.7&#10;&#9;&#9;c-6.6,2.6-11.3,9-11.3,16.6c0,9.8,8,17.8,17.8,17.8c3.8-0.3,16,31.5,16,31.5v-39.5c-0.1-15.5,9.5-20.7,16-23.2&#10;&#9;&#9;c0.2-8.6,7.2-15.5,15.8-15.5c4.1,0,7.8,1.6,10.6,4.1c3.2,3,7.8,3.9,11.9,2.2c2.5-1.1,5.3-1.7,8.3-1.7c3.5,0,6.9,0.9,9.8,2.4&#10;&#9;&#9;c3.4,1.8,7.4,1.8,10.8,0c2.9-1.5,6.3-2.4,9.8-2.4c6.7,0,12.7,3.2,16.6,8.1c0.8,1,2,1.6,3.2,1.6l0.2,0c1.5,0,2.8-0.8,3.6-2&#10;&#9;&#9;c2.9-4.6,8-7.7,13.9-7.7c6.7,0,12.5,4.1,15.1,9.9l2.2,0c22.3,0.7,24.5,16.6,24.8,24.4c0,0.2,0,35.9,0,35.9&#10;&#9;&#9;c4.5-10.6,15.7-27.6,15.7-27.6v-0.6c9.3-0.5,16.8-8.3,16.8-17.7C966.7,255.2,962,248.8,955.4,246.2z" transform="matrix(1, 0, 0, 1, -671.9498901367188, -112.2284164428711)"/>
<path id="XMLID_1140_" fill="#713517" d="M761.6,314c-0.8,0-1.6-0.5-1.9-1.3c-5.1-13.2-11.9-28.2-14.4-30.1&#10;&#9;&#9;c-10.8-0.2-19.6-9-19.6-19.8c0-7.2,3.8-13.6,9.8-17.1c-4.6-4.9-7.1-11.4-7.1-18.2c0-10.2,6-19.6,15.1-24.1c-2-3.8-3-8-3-12.2&#10;&#9;&#9;c0-14.8,12-26.8,26.8-26.8c0.2,0,0.3,0,0.5,0c3-16.4,17.4-28.5,34.3-28.5c6.4,0,12.6,1.7,18,5c6.2-10.8,17.6-17.4,30.2-17.4&#10;&#9;&#9;c11.5,0,22.1,5.6,28.7,15c4.2-1.7,8.6-2.6,13.2-2.6c16.8,0,31.2,12.1,34.3,28.5c0.2,0,0.3,0,0.5,0c14.8,0,26.8,12,26.8,26.8&#10;&#9;&#9;c0,4.3-1,8.4-3,12.2c9.1,4.4,15.1,13.8,15.1,24.1c0,6.8-2.6,13.2-7.1,18.2c6.1,3.5,9.8,10,9.8,17.1c0,10-7.5,18.4-17.3,19.7&#10;&#9;&#9;c-1.4,2.1-11.3,17.4-15.4,27c-0.4,0.9-1.3,1.4-2.3,1.2c-1-0.2-1.6-1-1.6-2c0-0.4,0-35.4,0-35.9c-0.7-14.6-8.1-21.9-22.8-22.4&#10;&#9;&#9;l-2.2,0c-0.8,0-1.5-0.5-1.9-1.2c-2.3-5.3-7.5-8.7-13.2-8.7c-5,0-9.5,2.5-12.1,6.7c-1.2,1.9-3.2,3-5.3,3c0,0,0,0,0,0l-0.2,0&#10;&#9;&#9;c-1.9,0-3.7-0.9-4.8-2.4c-3.6-4.7-9.1-7.3-15-7.3c-3.1,0-6.1,0.7-8.8,2.2c-4,2.1-8.8,2.1-12.8,0c-2.7-1.4-5.7-2.2-8.8-2.2&#10;&#9;&#9;c-2.6,0-5.1,0.5-7.5,1.5c-4.6,2-10.2,1-14.1-2.6c-2.5-2.3-5.8-3.6-9.2-3.6c-7.4,0-13.6,6-13.7,13.4c0,0.8-0.5,1.6-1.3,1.9&#10;&#9;&#9;c-6.3,2.4-14.7,7.3-14.7,21.3V312c0,1-0.7,1.8-1.7,2C761.9,314,761.8,314,761.6,314z M745.7,278.5c1.5,0,4.9,1.3,13.8,22.8v-28.8&#10;&#9;&#9;c-0.1-17,11-22.6,16.1-24.7c0.9-9,8.6-16.1,17.7-16.1c4.4,0,8.7,1.6,12,4.6c2.7,2.5,6.5,3.2,9.7,1.8c2.9-1.2,5.9-1.9,9.1-1.9&#10;&#9;&#9;c3.7,0,7.5,0.9,10.8,2.7c2.8,1.5,6.1,1.5,8.9,0c3.3-1.7,7-2.7,10.8-2.7c7.2,0,13.8,3.2,18.2,8.9c0.4,0.5,1,0.8,1.6,0.8l0.2,0&#10;&#9;&#9;c0,0,0,0,0,0c0.7,0,1.4-0.4,1.8-1.1c3.4-5.4,9.2-8.6,15.6-8.6c6.9,0,13.2,3.8,16.4,9.9l0.9,0c11.8,0.4,25.9,5.2,26.9,26.4&#10;&#9;&#9;c0,0.2,0,15.4,0,27.2c4.5-8.4,10.2-17.2,11.6-19.4c0-1.1,0.9-1.9,1.9-2c8.3-0.5,14.8-7.4,14.8-15.7c0-6.5-3.9-12.3-10-14.6&#10;&#9;&#9;c-0.7-0.3-1.2-0.9-1.3-1.6c-0.1-0.7,0.1-1.4,0.7-1.9c5-4.3,7.9-10.6,7.9-17.2c0-9.4-5.9-17.9-14.7-21.2c-0.6-0.2-1-0.7-1.2-1.3&#10;&#9;&#9;c-0.2-0.6-0.1-1.2,0.2-1.7c2.3-3.6,3.5-7.8,3.5-12.1c0-12.5-10.2-22.7-22.7-22.7c-0.6,0-1.3,0-2.1,0.1c-1.1,0.1-2.1-0.7-2.2-1.8&#10;&#9;&#9;c-2-15.3-15.1-26.8-30.5-26.8c-4.6,0-9,1-13.1,2.9c-0.9,0.4-2.1,0.1-2.6-0.8c-5.7-9.1-15.4-14.6-26.2-14.6&#10;&#9;&#9;c-11.8,0-22.4,6.6-27.6,17.2c-0.3,0.5-0.7,0.9-1.3,1.1c-0.6,0.1-1.2,0-1.7-0.3c-5.2-3.6-11.3-5.5-17.6-5.5&#10;&#9;&#9;c-15.4,0-28.5,11.5-30.5,26.8c-0.1,1.1-1.1,1.9-2.2,1.8c-0.8-0.1-1.5-0.1-2.1-0.1c-12.5,0-22.7,10.2-22.7,22.7&#10;&#9;&#9;c0,4.3,1.2,8.5,3.5,12.1c0.3,0.5,0.4,1.2,0.2,1.7c-0.2,0.6-0.6,1.1-1.2,1.3c-8.8,3.3-14.7,11.8-14.7,21.2c0,6.6,2.9,12.8,7.9,17.2&#10;&#9;&#9;c0.5,0.5,0.8,1.2,0.7,1.9c-0.1,0.7-0.6,1.3-1.3,1.6c-6.1,2.4-10,8.1-10,14.6c0,8.7,7,15.7,15.7,15.7&#10;&#9;&#9;C745.6,278.5,745.7,278.5,745.7,278.5z" transform="matrix(1, 0, 0, 1, -671.9498901367188, -112.2284164428711)"/>





</svg>