<?xml version="1.0" encoding="utf-8"?>
<svg id="master-artboard" viewBox="0 0 350 350" version="1.0" xmlns="http://www.w3.org/2000/svg" x="0px" y="0px" width="350px" height="350px" enable-background="new 0 0 1400 980"><rect id="ee-background" x="0" y="0" width="350" height="350" style="fill: white; fill-opacity: 0; pointer-events: none;"/>


















<g id="XMLID_777_" transform="matrix(1, 0, 0, 1, -974.5404357910156, -113.6490249633789)">
		<path id="XMLID_1247_" fill="#F9C68C" d="M1051.3,281.8c0,0-13.1-6.8-14,10.9c-0.9,17.8,13.1,32.9,28.7,31.5"/>
	</g><path id="XMLID_1139_" fill="#713517" d="M1063.9,326.4c-6.7,0-13.2-2.7-18.6-7.9c-6.9-6.7-10.6-16.1-10.1-25.9&#10;&#9;&#9;&#9;c0.3-6.6,2.3-10.9,5.9-13c5-2.8,10.9,0.2,11.2,0.3l-1.9,3.6c0,0-4.2-2.1-7.2-0.4c-2.8,1.6-3.6,6.1-3.8,9.6&#10;&#9;&#9;&#9;c-0.4,8.5,2.9,17,8.8,22.7c5,4.8,11.3,7.2,17.6,6.6l0.4,4.1C1065.4,326.4,1064.6,326.4,1063.9,326.4z" transform="matrix(1, 0, 0, 1, -974.5404357910156, -113.6490249633789)"/><path id="XMLID_1124_" fill="#6766AE" d="M1222,446.2h-152.4l0,0c0-30.2,24.5-54.7,54.7-54.7h43C1197.5,391.5,1222,416,1222,446.2&#10;&#9;&#9;&#9;L1222,446.2z" transform="matrix(1, 0, 0, 1, -974.5404357910156, -113.6490249633789)"/><path id="XMLID_1135_" fill="#713517" d="M1224,448.3h-156.5v-2.1c0-31.3,25.5-56.8,56.8-56.8h43c31.3,0,56.8,25.5,56.8,56.8&#10;&#9;&#9;&#9;V448.3z M1071.6,444.2h148.2c-1.1-28.1-24.3-50.6-52.6-50.6h-43C1095.9,393.5,1072.7,416.1,1071.6,444.2z" transform="matrix(1, 0, 0, 1, -974.5404357910156, -113.6490249633789)"/><path id="XMLID_1246_" fill="#F9C68C" d="M1163.2,390.1v-23.6h-34.8v23.6C1128.4,412.2,1163.2,412.2,1163.2,390.1z" transform="matrix(1, 0, 0, 1, -974.5404357910156, -113.6490249633789)"/><path id="XMLID_1132_" fill="#713517" d="M1145.8,408.7c-9.7,0-19.4-6.4-19.4-18.6v-25.7h38.9v25.7&#10;&#9;&#9;&#9;C1165.2,402.3,1155.4,408.7,1145.8,408.7z M1130.4,368.5v21.6c0,10,8,14.5,15.3,14.5c7.4,0,15.3-4.5,15.3-14.5v-21.6H1130.4z" transform="matrix(1, 0, 0, 1, -974.5404357910156, -113.6490249633789)"/><path id="XMLID_1245_" fill="#F9C68C" d="M1240.2,281.8c0,0,13.1-6.8,14,10.9c0.9,17.8-13.1,32.9-28.7,31.5" transform="matrix(1, 0, 0, 1, -974.5404357910156, -113.6490249633789)"/><path id="XMLID_1244_" fill="#F9C68C" d="M1240.2,269c0,52.1-42.3,110.9-94.5,110.9s-94.5-58.7-94.5-110.9s42.3-77.9,94.5-77.9&#10;&#9;&#9;&#9;S1240.2,216.9,1240.2,269z" transform="matrix(1, 0, 0, 1, -974.5404357910156, -113.6490249633789)"/><path id="XMLID_1129_" fill="#713517" d="M1145.8,382c-54.4,0-96.5-60.7-96.5-112.9c0-25.2,9.8-46,28.5-60.1&#10;&#9;&#9;&#9;c17.1-13,40.6-19.8,68-19.8s50.9,6.9,68,19.8c18.6,14.1,28.5,34.9,28.5,60.1C1242.3,321.3,1200.1,382,1145.8,382z M1145.8,193.2&#10;&#9;&#9;&#9;c-44.7,0-92.4,19.9-92.4,75.8c0,25,10.2,52.6,27.2,73.7c18.3,22.6,41.4,35.1,65.2,35.1c23.8,0,46.9-12.5,65.2-35.1&#10;&#9;&#9;&#9;c17-21.1,27.2-48.7,27.2-73.7C1238.2,213.1,1190.4,193.2,1145.8,193.2z" transform="matrix(1, 0, 0, 1, -974.5404357910156, -113.6490249633789)"/><path id="XMLID_1128_" fill="#713517" d="M1227.7,326.4c-0.7,0-1.5,0-2.2-0.1l0.4-4.1c6.3,0.6,12.5-1.8,17.6-6.6&#10;&#9;&#9;&#9;c6-5.7,9.3-14.2,8.8-22.7c-0.2-3.5-1-8-3.8-9.6c-3-1.7-7.2,0.4-7.2,0.4l-1.9-3.6c0.2-0.1,6.2-3.2,11.2-0.3c3.6,2,5.5,6.4,5.9,13&#10;&#9;&#9;&#9;c0.5,9.8-3.2,19.2-10.1,25.9C1240.9,323.7,1234.4,326.4,1227.7,326.4z" transform="matrix(1, 0, 0, 1, -974.5404357910156, -113.6490249633789)"/><g id="XMLID_628_" transform="matrix(1, 0, 0, 1, -974.5404357910156, -113.6490249633789)">
			<path d="M 1117.3 288.299988 A 6.8 6.8 0 0 1 1110.5 295.099988 A 6.8 6.8 0 0 1 1103.7 288.299988 A 6.8 6.8 0 0 1 1110.5 281.499988 A 6.8 6.8 0 0 1 1117.3 288.299988 Z" id="XMLID_1243_" fill="#713517"/>
		</g><path d="M 1187.8 288.299988 A 6.8 6.8 0 0 1 1181 295.099988 A 6.8 6.8 0 0 1 1174.2 288.299988 A 6.8 6.8 0 0 1 1181 281.499988 A 6.8 6.8 0 0 1 1187.8 288.299988 Z" id="XMLID_1242_" fill="#713517" transform="matrix(1, 0, 0, 1, -974.5404357910156, -113.6490249633789)"/><g id="XMLID_623_" transform="matrix(1, 0, 0, 1, -974.5404357910156, -113.6490249633789)">
			<path id="XMLID_1241_" fill="#713517" d="M1117.4,332.7h56.8c0,0-4.6,24.3-28.4,24.4C1122.8,357.2,1117.4,332.7,1117.4,332.7z"/>
		</g><path id="XMLID_1240_" fill="#EF5353" d="M1127.1,349.8c0,0,7-8.2,20.7-7.4c13.7,0.8,17.9,6.3,17.9,6.3s-4.3,9.2-18.3,8.3&#10;&#9;&#9;&#9;&#9;C1133.6,356.1,1127.1,349.8,1127.1,349.8z" transform="matrix(1, 0, 0, 1, -974.5404357910156, -113.6490249633789)"/><path id="XMLID_1125_" fill="#713517" d="M1145.6,359.1c-24.2,0-30.2-25.7-30.3-26c-0.1-0.6,0-1.2,0.4-1.7c0.4-0.5,1-0.8,1.6-0.8&#10;&#9;&#9;&#9;h56.8c0.6,0,1.2,0.3,1.6,0.7c0.4,0.5,0.5,1.1,0.4,1.7c0,0.3-5.2,26-30.4,26.1C1145.7,359.1,1145.7,359.1,1145.6,359.1z&#10;&#9;&#9;&#9; M1120.1,334.7c2,5.9,8.6,20.3,25.5,20.3c0,0,0.1,0,0.1,0c17.5-0.1,23.9-14.4,25.7-20.3H1120.1z" transform="matrix(1, 0, 0, 1, -974.5404357910156, -113.6490249633789)"/><path d="M 1148.900049 309.200012 A 3.1 3.1 0 0 1 1145.800049 312.300012 A 3.1 3.1 0 0 1 1142.700049 309.200012 A 3.1 3.1 0 0 1 1145.800049 306.100012 A 3.1 3.1 0 0 1 1148.900049 309.200012 Z" id="XMLID_1239_" fill="#EF5353" transform="matrix(1, 0, 0, 1, -974.5404357910156, -113.6490249633789)"/><g id="XMLID_616_" transform="matrix(1, 0, 0, 1, -974.5404357910156, -113.6490249633789)">
			<path id="XMLID_1119_" fill="#3A2D24" d="M1249.4,281.5v-62.7c0-38.3-24.9-72.6-61.7-83.2c-0.9-0.2-1.7-0.5-2.6-0.7&#10;&#9;&#9;&#9;&#9;c-49.3-12.7-80.1,13.3-85.5,28.4c0,0-0.6-0.1-1.7-0.2c-28.3-3.3-53.1,19.1-53.1,47.6v67.2v2.9c9.1,5.1,10.4,16.9,10.4,16.9&#10;&#9;&#9;&#9;&#9;s-3.7-22.6,6.7-49.5c10.5-27,49.6-38.7,49.6-38.7c12,28.5,41.9,64.5,116.6,62l7.7-0.4l-0.5,30.2&#10;&#9;&#9;&#9;&#9;C1235.3,301,1238.1,282.8,1249.4,281.5z"/>
		</g><path id="XMLID_1121_" fill="#713517" d="M1235.3,303.1c-0.1,0-0.1,0-0.2,0c-1.1-0.1-1.9-1-1.9-2.1l0.4-28l-5.5,0.3&#10;&#9;&#9;&#9;&#9;c-2.5,0.1-5,0.1-7.5,0.1c-68.1,0-97.6-32.8-110.3-61.6c-7.6,2.6-37.8,14.4-46.5,36.9c-9.3,23.9-7.1,44.5-6.7,47.9&#10;&#9;&#9;&#9;&#9;c0.1,0.3,0.1,0.6,0.1,0.6c0.1,1.1-0.7,2.1-1.8,2.3c-1.1,0.1-2.1-0.6-2.3-1.7c0-0.1,0-0.3-0.1-0.6c-0.4-2.2-2.2-10.9-9.3-14.8&#10;&#9;&#9;&#9;&#9;c-0.6-0.4-1-1-1-1.8v-70.1c0-14.3,6.1-27.9,16.7-37.4c10.5-9.4,24.6-13.9,38.6-12.3c0,0,0.1,0,0.1,0c7.4-16.7,39-40.6,87.3-28.1&#10;&#9;&#9;&#9;&#9;c0.9,0.2,1.8,0.5,2.7,0.7c37.2,10.7,63.2,45.8,63.2,85.2v62.7c0,1-0.8,1.9-1.8,2c-9.6,1.2-12.3,17.7-12.4,17.8&#10;&#9;&#9;&#9;&#9;C1237.2,302.4,1236.3,303.1,1235.3,303.1z M1235.7,268.8c0.5,0,1,0.2,1.4,0.6c0.4,0.4,0.6,0.9,0.6,1.5l-0.3,17.5&#10;&#9;&#9;&#9;&#9;c2.2-3.8,5.3-7.4,9.8-8.6v-61c0-37.6-24.8-71-60.2-81.3c-0.8-0.2-1.7-0.5-2.5-0.7c-46.7-12-77.6,12.1-83.1,27.1&#10;&#9;&#9;&#9;&#9;c-0.3,0.9-1.3,1.5-2.3,1.3c0,0-0.6-0.1-1.6-0.2c-12.8-1.5-25.7,2.6-35.4,11.2c-9.8,8.7-15.4,21.2-15.4,34.3v68.9&#10;&#9;&#9;&#9;&#9;c2.4,1.5,4.2,3.5,5.6,5.5c0.2-9.3,1.7-22.8,7.5-37.7c10.7-27.6,49.3-39.4,50.9-39.9c1-0.3,2.1,0.2,2.5,1.2&#10;&#9;&#9;&#9;&#9;c12.2,29.1,42.1,63.2,114.6,60.7L1235.7,268.8C1235.7,268.8,1235.7,268.8,1235.7,268.8z" transform="matrix(1, 0, 0, 1, -974.5404357910156, -113.6490249633789)"/>




</svg>