<?xml version="1.0" encoding="utf-8"?>
<svg id="master-artboard" viewBox="0 0 350 350" version="1.0" xmlns="http://www.w3.org/2000/svg" x="0px" y="0px" width="350px" height="350px" enable-background="new 0 0 1400 980"><rect id="ee-background" x="0" y="0" width="350" height="350" style="fill: white; fill-opacity: 0; pointer-events: none;"/>






















<g id="XMLID_648_" transform="matrix(1, 0, 0, 1, -65.34823608398438, -525.6267700195312)">
		<path id="XMLID_1208_" fill="#CE912F" d="M331.7,728.3c0,0-13.6,23.9-4.7,39.3c8.9,15.4,11.2,24.6,0.8,41.7&#10;&#9;&#9;&#9;c-10.4,17.1,6.9,35.2,6.9,35.2s-62.7,8.9-99.2-2.1c-36.5,10.9-99.2,2.1-99.2,2.1s17.3-18.1,6.9-35.2c-10.4-17.1-8.1-26.3,0.8-41.7&#10;&#9;&#9;&#9;c8.9-15.4-4.7-39.3-4.7-39.3"/>
	</g><path id="XMLID_803_" fill="#713517" d="M283.9,850.1c-16.5,0-34.2-1.3-48.3-5.4c-36.5,10.7-96.9,2.3-99.5,1.9&#10;&#9;&#9;&#9;c-0.8-0.1-1.4-0.6-1.6-1.4c-0.3-0.7-0.1-1.5,0.5-2.1c0.2-0.2,16.1-17.2,6.6-32.8c-10.8-17.7-8.5-27.8,0.8-43.8&#10;&#9;&#9;&#9;c8.2-14.2-4.5-37.1-4.7-37.3l3.6-2c0.6,1,14,25.2,4.7,41.4c-9,15.5-10.4,23.8-0.8,39.6c8.5,14-0.1,28.6-4.7,34.7&#10;&#9;&#9;&#9;c13.9,1.7,64,6.7,94.7-2.4c0.4-0.1,0.8-0.1,1.2,0c30.6,9.2,80.8,4.1,94.7,2.4c-4.6-6.1-13.2-20.7-4.7-34.7&#10;&#9;&#9;&#9;c9.6-15.8,8.1-24.1-0.8-39.6c-9.4-16.2,4.1-40.4,4.7-41.4l3.6,2c-0.1,0.2-12.9,23.1-4.7,37.3c9.2,16,11.6,26.1,0.8,43.8&#10;&#9;&#9;&#9;c-9.4,15.5,6.4,32.6,6.6,32.8c0.5,0.6,0.7,1.4,0.5,2.1c-0.3,0.7-0.9,1.2-1.6,1.4C333.5,846.8,310.1,850.1,283.9,850.1z" transform="matrix(1, 0, 0, 1, -65.34823608398438, -525.6267700195312)"/><path id="XMLID_1207_" fill="#F9C68C" d="M140.4,690.1c0,0-13.1-6.8-14,10.9c-0.9,17.8,13.1,32.9,28.7,31.5" transform="matrix(1, 0, 0, 1, -65.34823608398438, -525.6267700195312)"/><path id="XMLID_799_" fill="#713517" d="M153,734.7c-6.7,0-13.2-2.7-18.6-7.9c-6.9-6.7-10.6-16.1-10.1-25.9&#10;&#9;&#9;&#9;c0.3-6.6,2.3-10.9,5.9-13c5-2.8,10.9,0.2,11.2,0.3l-1.9,3.6l0.9-1.8l-0.9,1.8c0,0-4.2-2.1-7.2-0.4c-2.8,1.6-3.6,6.1-3.8,9.6&#10;&#9;&#9;&#9;c-0.4,8.5,2.9,17,8.8,22.7c5,4.8,11.3,7.2,17.6,6.6l0.4,4.1C154.5,734.7,153.7,734.7,153,734.7z" transform="matrix(1, 0, 0, 1, -65.34823608398438, -525.6267700195312)"/><path id="XMLID_625_" fill="#85B440" d="M311.1,854.5H158.7v0c0-30.2,24.5-54.7,54.7-54.7h43C286.6,799.7,311.1,824.3,311.1,854.5&#10;&#9;&#9;&#9;L311.1,854.5z" transform="matrix(1, 0, 0, 1, -65.34823608398438, -525.6267700195312)"/><path id="XMLID_774_" fill="#713517" d="M313.2,856.5H156.6v-2.1c0-31.3,25.5-56.8,56.8-56.8h43c31.3,0,56.8,25.5,56.8,56.8V856.5&#10;&#9;&#9;&#9;z M160.8,852.4H309c-1.1-28.1-24.3-50.6-52.6-50.6h-43C185.1,801.8,161.9,824.3,160.8,852.4z" transform="matrix(1, 0, 0, 1, -65.34823608398438, -525.6267700195312)"/><path id="XMLID_1206_" fill="#F9C68C" d="M252.3,798.4l0-23.6h-34.8v23.6C217.5,820.5,252.3,820.5,252.3,798.4z" transform="matrix(1, 0, 0, 1, -65.34823608398438, -525.6267700195312)"/><path id="XMLID_769_" fill="#713517" d="M234.9,817c-9.7,0-19.4-6.4-19.4-18.6v-25.7h38.9v25.7C254.3,810.6,244.6,817,234.9,817z&#10;&#9;&#9;&#9; M219.6,776.8v21.6c0,10,8,14.5,15.3,14.5c7.4,0,15.3-4.5,15.3-14.5v-21.6H219.6z" transform="matrix(1, 0, 0, 1, -65.34823608398438, -525.6267700195312)"/><path id="XMLID_1205_" fill="#F9C68C" d="M329.4,690.1c0,0,13.1-6.8,14,10.9c0.9,17.8-13.1,32.9-28.7,31.5" transform="matrix(1, 0, 0, 1, -65.34823608398438, -525.6267700195312)"/><path id="XMLID_1204_" fill="#F9C68C" d="M329.4,677.3c0,52.1-42.3,110.9-94.5,110.9s-94.5-58.7-94.5-110.9s42.3-77.9,94.5-77.9&#10;&#9;&#9;&#9;S329.4,625.2,329.4,677.3z" transform="matrix(1, 0, 0, 1, -65.34823608398438, -525.6267700195312)"/><path id="XMLID_656_" fill="#713517" d="M234.9,790.2c-54.4,0-96.5-60.7-96.5-112.9c0-25.2,9.8-46,28.5-60.1&#10;&#9;&#9;&#9;c17.1-13,40.6-19.8,68-19.8s50.9,6.9,68,19.8c18.6,14.1,28.5,34.9,28.5,60.1C331.4,729.5,289.3,790.2,234.9,790.2z M234.9,601.5&#10;&#9;&#9;&#9;c-44.7,0-92.4,19.9-92.4,75.8c0,25,10.2,52.6,27.2,73.7c18.3,22.6,41.4,35.1,65.2,35.1s46.9-12.5,65.2-35.1&#10;&#9;&#9;&#9;c17-21.1,27.2-48.7,27.2-73.7C327.3,621.4,279.6,601.5,234.9,601.5z" transform="matrix(1, 0, 0, 1, -65.34823608398438, -525.6267700195312)"/><path id="XMLID_654_" fill="#713517" d="M316.8,734.7c-0.7,0-1.5,0-2.2-0.1l0.4-4.1c6.3,0.6,12.5-1.8,17.6-6.6&#10;&#9;&#9;&#9;c6-5.7,9.3-14.2,8.8-22.7c-0.2-3.5-1-8-3.8-9.6c-3-1.7-7.2,0.4-7.2,0.4l-1.9-3.6c0.2-0.1,6.2-3.1,11.2-0.3c3.6,2,5.5,6.4,5.9,13&#10;&#9;&#9;&#9;c0.5,9.8-3.2,19.2-10.1,25.9C330,731.9,323.5,734.7,316.8,734.7z" transform="matrix(1, 0, 0, 1, -65.34823608398438, -525.6267700195312)"/><g id="XMLID_668_" transform="matrix(1, 0, 0, 1, -65.34823608398438, -525.6267700195312)">
			<path d="M 206.499997 696.599976 A 6.8 6.8 0 0 1 199.699997 703.399976 A 6.8 6.8 0 0 1 192.899997 696.599976 A 6.8 6.8 0 0 1 199.699997 689.799975 A 6.8 6.8 0 0 1 206.499997 696.599976 Z" id="XMLID_1203_" fill="#713517"/>
		</g><path d="M 276.900006 696.599976 A 6.8 6.8 0 0 1 270.100006 703.399976 A 6.8 6.8 0 0 1 263.300006 696.599976 A 6.8 6.8 0 0 1 270.100006 689.799975 A 6.8 6.8 0 0 1 276.900006 696.599976 Z" id="XMLID_1202_" fill="#713517" transform="matrix(1, 0, 0, 1, -65.34823608398438, -525.6267700195312)"/><g id="XMLID_665_" transform="matrix(1, 0, 0, 1, -65.34823608398438, -525.6267700195312)">
			<path id="XMLID_1201_" fill="#713517" d="M206.5,740.9h56.8c0,0-4.6,24.3-28.4,24.4C211.9,765.4,206.5,740.9,206.5,740.9z"/>
		</g><path id="XMLID_1200_" fill="#EF5353" d="M216.3,758.1c0,0,7-8.2,20.7-7.4c13.7,0.8,17.9,6.3,17.9,6.3s-4.3,9.2-18.3,8.3&#10;&#9;&#9;&#9;&#9;C222.7,764.4,216.3,758.1,216.3,758.1z" transform="matrix(1, 0, 0, 1, -65.34823608398438, -525.6267700195312)"/><path id="XMLID_651_" fill="#713517" d="M234.8,767.4c-24.2,0-30.2-25.7-30.3-26c-0.1-0.6,0-1.2,0.4-1.7c0.4-0.5,1-0.8,1.6-0.8&#10;&#9;&#9;&#9;h56.8c0.6,0,1.2,0.3,1.6,0.7s0.5,1.1,0.4,1.7c0,0.3-5.2,26-30.4,26.1C234.9,767.4,234.8,767.4,234.8,767.4z M209.2,743&#10;&#9;&#9;&#9;c2,5.9,8.6,20.3,25.5,20.3c0,0,0.1,0,0.1,0c17.7-0.1,23.9-14.4,25.8-20.3H209.2z" transform="matrix(1, 0, 0, 1, -65.34823608398438, -525.6267700195312)"/><path d="M 237.999994 717.5 A 3.1 3.1 0 0 1 234.899994 720.6 A 3.1 3.1 0 0 1 231.799994 717.5 A 3.1 3.1 0 0 1 234.899994 714.4 A 3.1 3.1 0 0 1 237.999994 717.5 Z" id="XMLID_1199_" fill="#EF5353" transform="matrix(1, 0, 0, 1, -65.34823608398438, -525.6267700195312)"/><g id="XMLID_1081_" transform="matrix(1, 0, 0, 1, -65.34823608398438, -525.6267700195312)">
			<path id="XMLID_1197_" fill="#EBB148" d="M338.6,651.3c0,0,12.9,32.2,36.1,26.7c0,0-25.3,25.5-59.9,23.3&#10;&#9;&#9;&#9;&#9;c-43.3-2.8-100.9-32.2-114.1-83.7c0,0-39.1,11.7-49.6,38.7c-10.5,27-6.7,49.5-6.7,49.5S143,694,134,688.9V686v-67.2&#10;&#9;&#9;&#9;&#9;c0-28.5,24.8-50.8,53.1-47.6c1.1,0.1,1.7,0.2,1.7,0.2c5.5-15.1,36.3-41.1,85.5-28.4c0.9,0.2,1.7,0.5,2.6,0.7&#10;&#9;&#9;&#9;&#9;c36.8,10.6,61.7,44.9,61.7,83.2v21.7V651.3z"/>
		</g><g id="XMLID_646_" transform="matrix(1, 0, 0, 1, -65.34823608398438, -525.6267700195312)">
			<path id="XMLID_627_" fill="#713517" d="M144.4,707.8c-1,0-1.9-0.7-2-1.7c0-0.1,0-0.3-0.1-0.6c-0.4-2.2-2.3-10.9-9.3-14.8&#10;&#9;&#9;&#9;&#9;c-0.6-0.4-1-1-1-1.8v-70.1c0-14.3,6.1-27.9,16.7-37.4c10.5-9.4,24.6-13.9,38.6-12.3c0,0,0.1,0,0.1,0c7.4-16.7,39-40.6,87.3-28.1&#10;&#9;&#9;&#9;&#9;c0.9,0.2,1.8,0.5,2.7,0.7c37.2,10.7,63.2,45.8,63.2,85.2v23.8c1.5,3.4,13.6,29.8,33.6,25.1c0.9-0.2,1.8,0.2,2.3,1&#10;&#9;&#9;&#9;&#9;c0.4,0.8,0.3,1.8-0.3,2.4c-1.1,1.1-26.4,26.1-61.5,23.9c-23.2-1.5-48.5-10.2-69.3-23.9c-16.6-10.9-37.8-30-46.1-59.2&#10;&#9;&#9;&#9;&#9;c-8,2.8-37.6,14.5-46.2,36.8c-9.3,23.9-7.1,44.5-6.7,47.9c0.1,0.3,0.1,0.6,0.1,0.6c0.1,1.1-0.7,2.1-1.8,2.3&#10;&#9;&#9;&#9;&#9;C144.5,707.8,144.5,707.8,144.4,707.8z M200.6,615.5c0.4,0,0.7,0.1,1,0.3c0.5,0.3,0.8,0.7,1,1.3c12.3,47.7,66.7,79.3,112.2,82.2&#10;&#9;&#9;&#9;&#9;c24.7,1.6,44.8-11.6,53.6-18.5c-20.4-0.7-31.3-27.4-31.8-28.6c-0.1-0.2-0.1-0.5-0.1-0.8V627c0-37.6-24.8-71-60.2-81.3&#10;&#9;&#9;&#9;&#9;c-0.8-0.2-1.7-0.5-2.5-0.7c-46.7-12-77.6,12.1-83.1,27.1c-0.3,0.9-1.3,1.5-2.3,1.3c0,0-0.6-0.1-1.6-0.2&#10;&#9;&#9;&#9;&#9;c-12.8-1.5-25.7,2.6-35.4,11.2c-9.8,8.7-15.4,21.2-15.4,34.3v68.9c2.4,1.5,4.2,3.5,5.6,5.5c0.2-9.3,1.7-22.8,7.5-37.7&#10;&#9;&#9;&#9;&#9;c10.7-27.6,49.3-39.4,50.9-39.9C200.2,615.5,200.4,615.5,200.6,615.5z"/>
		</g>
</svg>