<?xml version="1.0" encoding="utf-8"?>
<svg id="master-artboard" viewBox="0 0 350 350" version="1.0" xmlns="http://www.w3.org/2000/svg" x="0px" y="0px" width="350px" height="350px" enable-background="new 0 0 1400 980"><rect id="ee-background" x="0" y="0" width="350" height="350" style="fill: white; fill-opacity: 0; pointer-events: none;"/>





















<g id="XMLID_679_" transform="matrix(1, 0, 0, 1, -375.04180908203125, -527.0473937988281)">
		<path id="XMLID_1219_" fill="#723F2D" d="M619.1,740.9c0,0,17.5,9.8,12.5,39.4c-5,29.6,1.8,54.3,35.6,56.1&#10;&#9;&#9;&#9;c0,0-47.5,16.1-66.1-21.5c-18.7-37.6-10-49.7-25.5-57"/>
	</g><path id="XMLID_870_" fill="#713517" d="M644.5,841.8c-15.5,0-34.8-4.8-45.3-26c-8.6-17.3-11.5-29.2-13.5-37.9&#10;&#9;&#9;&#9;c-2.4-10-3.5-14.6-11-18.1l1.7-3.7c9.3,4.4,10.8,10.6,13.3,20.9c2,8.5,4.8,20.1,13.2,37.1c12.6,25.4,38.7,25.3,53.3,22.9&#10;&#9;&#9;&#9;c-8.4-2.1-15-6-19.7-11.9c-8-9.9-10.3-25.1-6.9-45.1c4.7-27.9-11.3-37.2-11.5-37.3l2-3.6c0.8,0.4,18.7,10.8,13.5,41.6&#10;&#9;&#9;&#9;c-3.2,18.8-1.1,32.8,6.1,41.8c5.8,7.2,15.1,11.2,27.6,11.9c1,0.1,1.8,0.8,1.9,1.8c0.1,1-0.4,1.9-1.4,2.2&#10;&#9;&#9;&#9;C667.6,838.5,657.4,841.8,644.5,841.8z" transform="matrix(1, 0, 0, 1, -375.04180908203125, -527.0473937988281)"/><path id="XMLID_1218_" fill="#F9C68C" d="M449.7,690.1c0,0-13.1-6.8-14,10.9c-0.9,17.8,13.1,32.9,28.7,31.5" transform="matrix(1, 0, 0, 1, -375.04180908203125, -527.0473937988281)"/><path id="XMLID_869_" fill="#713517" d="M462.2,734.7c-6.7,0-13.2-2.7-18.6-7.9c-6.9-6.7-10.6-16.1-10.1-25.9&#10;&#9;&#9;&#9;c0.3-6.6,2.3-10.9,5.9-13c5-2.8,10.9,0.2,11.2,0.3l-1.9,3.6c0,0-4.2-2.1-7.2-0.4c-2.8,1.6-3.6,6.1-3.8,9.6&#10;&#9;&#9;&#9;c-0.4,8.5,2.9,17,8.8,22.7c5,4.8,11.3,7.2,17.6,6.6l0.4,4.1C463.7,734.7,463,734.7,462.2,734.7z" transform="matrix(1, 0, 0, 1, -375.04180908203125, -527.0473937988281)"/><path id="XMLID_798_" fill="#6766AE" d="M620.4,854.5H467.9v0c0-30.2,24.5-54.7,54.7-54.7h43C595.9,799.7,620.4,824.3,620.4,854.5&#10;&#9;&#9;&#9;L620.4,854.5z" transform="matrix(1, 0, 0, 1, -375.04180908203125, -527.0473937988281)"/><path id="XMLID_863_" fill="#713517" d="M622.4,856.5H465.9v-2.1c0-31.3,25.5-56.8,56.8-56.8h43c31.3,0,56.8,25.5,56.8,56.8V856.5&#10;&#9;&#9;&#9;z M470,852.4h148.2c-1.1-28.1-24.3-50.6-52.6-50.6h-43C494.3,801.8,471.1,824.3,470,852.4z" transform="matrix(1, 0, 0, 1, -375.04180908203125, -527.0473937988281)"/><path id="XMLID_1217_" fill="#F9C68C" d="M561.5,798.4l0-23.6h-34.8v23.6C526.8,820.5,561.5,820.5,561.5,798.4z" transform="matrix(1, 0, 0, 1, -375.04180908203125, -527.0473937988281)"/><path id="XMLID_852_" fill="#713517" d="M544.1,817c-9.7,0-19.4-6.4-19.4-18.6v-25.7h38.9v25.7C563.6,810.6,553.8,817,544.1,817z&#10;&#9;&#9;&#9; M528.8,776.8v21.6c0,10,8,14.5,15.3,14.5s15.3-4.5,15.3-14.5v-21.6H528.8z" transform="matrix(1, 0, 0, 1, -375.04180908203125, -527.0473937988281)"/><path id="XMLID_1216_" fill="#F9C68C" d="M638.6,690.1c0,0,13.1-6.8,14,10.9c0.9,17.8-13.1,32.9-28.7,31.5" transform="matrix(1, 0, 0, 1, -375.04180908203125, -527.0473937988281)"/><path id="XMLID_1215_" fill="#F9C68C" d="M638.6,677.3c0,52.1-42.3,110.9-94.5,110.9s-94.5-58.7-94.5-110.9s42.3-77.9,94.5-77.9&#10;&#9;&#9;&#9;S638.6,625.2,638.6,677.3z" transform="matrix(1, 0, 0, 1, -375.04180908203125, -527.0473937988281)"/><path id="XMLID_835_" fill="#713517" d="M544.1,790.2c-54.4,0-96.5-60.7-96.5-112.9c0-25.2,9.8-46,28.5-60.1&#10;&#9;&#9;&#9;c17.1-13,40.6-19.8,68-19.8c27.4,0,50.9,6.9,68,19.8c18.6,14.1,28.5,34.9,28.5,60.1C640.7,729.5,598.5,790.2,544.1,790.2z&#10;&#9;&#9;&#9; M544.1,601.5c-44.7,0-92.4,19.9-92.4,75.8c0,25,10.2,52.6,27.2,73.7c18.3,22.6,41.4,35.1,65.2,35.1c23.8,0,46.9-12.5,65.2-35.1&#10;&#9;&#9;&#9;c17-21.1,27.2-48.7,27.2-73.7C636.6,621.4,588.8,601.5,544.1,601.5z" transform="matrix(1, 0, 0, 1, -375.04180908203125, -527.0473937988281)"/><path id="XMLID_833_" fill="#713517" d="M626,734.7c-0.7,0-1.5,0-2.2-0.1l0.4-4.1c6.3,0.6,12.5-1.8,17.6-6.6&#10;&#9;&#9;&#9;c6-5.7,9.3-14.2,8.8-22.7c-0.2-3.5-1-8-3.8-9.6c-3-1.7-7.2,0.4-7.2,0.4l-1.9-3.6c0.2-0.1,6.2-3.1,11.2-0.3c3.6,2,5.5,6.4,5.9,13&#10;&#9;&#9;&#9;c0.5,9.8-3.2,19.2-10.1,25.9C639.3,731.9,632.8,734.7,626,734.7z" transform="matrix(1, 0, 0, 1, -375.04180908203125, -527.0473937988281)"/><g id="XMLID_808_" transform="matrix(1, 0, 0, 1, -375.04180908203125, -527.0473937988281)">
			<path d="M 515.699994 696.599976 A 6.8 6.8 0 0 1 508.899994 703.399976 A 6.8 6.8 0 0 1 502.099994 696.599976 A 6.8 6.8 0 0 1 508.899994 689.799975 A 6.8 6.8 0 0 1 515.699994 696.599976 Z" id="XMLID_1214_" fill="#713517"/>
		</g><path d="M 586.200025 696.599976 A 6.8 6.8 0 0 1 579.400024 703.399976 A 6.8 6.8 0 0 1 572.600024 696.599976 A 6.8 6.8 0 0 1 579.400024 689.799975 A 6.8 6.8 0 0 1 586.200025 696.599976 Z" id="XMLID_1213_" fill="#713517" transform="matrix(1, 0, 0, 1, -375.04180908203125, -527.0473937988281)"/><g id="XMLID_802_" transform="matrix(1, 0, 0, 1, -375.04180908203125, -527.0473937988281)">
			<path id="XMLID_1212_" fill="#713517" d="M515.7,740.9h56.8c0,0-4.6,24.3-28.4,24.4C521.2,765.4,515.7,740.9,515.7,740.9z"/>
		</g><path id="XMLID_1211_" fill="#EF5353" d="M525.5,758.1c0,0,7-8.2,20.7-7.4c13.7,0.8,17.9,6.3,17.9,6.3s-4.3,9.2-18.3,8.3&#10;&#9;&#9;&#9;&#9;C531.9,764.4,525.5,758.1,525.5,758.1z" transform="matrix(1, 0, 0, 1, -375.04180908203125, -527.0473937988281)"/><path id="XMLID_829_" fill="#713517" d="M544,767.4c-24.2,0-30.2-25.7-30.3-26c-0.1-0.6,0-1.2,0.4-1.7c0.4-0.5,1-0.8,1.6-0.8h56.8&#10;&#9;&#9;&#9;c0.6,0,1.2,0.3,1.6,0.7s0.5,1.1,0.4,1.7c0,0.3-5.2,26-30.4,26.1C544.1,767.4,544.1,767.4,544,767.4z M518.5,743&#10;&#9;&#9;&#9;c2,6,8.7,20.4,25.7,20.3c17.7-0.1,23.9-14.4,25.8-20.3H518.5z" transform="matrix(1, 0, 0, 1, -375.04180908203125, -527.0473937988281)"/><path d="M 547.199975 717.5 A 3.1 3.1 0 0 1 544.099976 720.6 A 3.1 3.1 0 0 1 540.999976 717.5 A 3.1 3.1 0 0 1 544.099976 714.4 A 3.1 3.1 0 0 1 547.199975 717.5 Z" id="XMLID_1210_" fill="#EF5353" transform="matrix(1, 0, 0, 1, -375.04180908203125, -527.0473937988281)"/><g id="XMLID_711_" transform="matrix(1, 0, 0, 1, -375.04180908203125, -527.0473937988281)">
			<path id="XMLID_1209_" fill="#7B4732" d="M443.2,651.3v-32.5c0-28.5,24.8-50.8,53.1-47.6c1.1,0.1,1.7,0.2,1.7,0.2&#10;&#9;&#9;&#9;&#9;c5.5-15.1,36.3-41.1,85.5-28.4c0.9,0.2,1.7,0.5,2.6,0.7c36.8,10.6,61.7,44.9,61.7,83.2v62.7c-11.3,1.4-14.1,19.6-14.1,19.6l0-0.5&#10;&#9;&#9;&#9;&#9;c0.2-15.4-11.4-28.5-26.8-29.9c-30.2-2.7-77.1-14.8-97-61.3c0,0-39.1,11.7-49.6,38.7c-10.5,27-6.7,49.5-6.7,49.5&#10;&#9;&#9;&#9;&#9;s-4.4,21.2,3.2,35.2c7.5,14,10.9,39.3-13.6,48.9c0,0,12.4-11.7,0-39.2s-15.3-48.4-7.6-65.8C443.2,667.4,443.2,651.3,443.2,651.3z&#10;&#9;&#9;&#9;&#9;"/>
		</g><g id="XMLID_676_" transform="matrix(1, 0, 0, 1, -375.04180908203125, -527.0473937988281)">
			<path id="XMLID_806_" fill="#713517" d="M443.2,791.9c-0.7,0-1.3-0.3-1.7-1c-0.5-0.8-0.4-1.9,0.3-2.6c0.5-0.4,11.2-11.3-0.5-36.9&#10;&#9;&#9;&#9;&#9;c-12.9-28.5-15.3-49.9-7.6-67.5c7.4-16.9,7.5-32.5,7.5-32.7v-32.5c0-14.3,6.1-27.9,16.7-37.4c10.5-9.4,24.6-13.9,38.6-12.3&#10;&#9;&#9;&#9;&#9;c0,0,0.1,0,0.1,0c7.4-16.7,39-40.6,87.3-28.1c0.9,0.2,1.8,0.5,2.7,0.7c37.2,10.7,63.2,45.8,63.2,85.2v62.7c0,1-0.8,1.9-1.8,2&#10;&#9;&#9;&#9;&#9;c-9.6,1.2-12.3,17.7-12.4,17.8c-0.2,1.1-1.1,1.8-2.2,1.7c-1.1-0.1-1.9-1-1.9-2.1c0.2-14.6-11-27-25.4-28.2&#10;&#9;&#9;&#9;&#9;c-28-2.3-77.5-13.4-97.5-61c-7.6,2.7-37.7,14.4-46.5,36.9c-10.1,26.1-6.6,48.2-6.6,48.4c0,0.2,0,0.5,0,0.7c0,0.2-4.1,20.7,3,33.8&#10;&#9;&#9;&#9;&#9;c4.7,8.7,8.1,22.2,3.8,34c-3,8.2-9.2,14.2-18.4,17.8C443.7,791.8,443.5,791.9,443.2,791.9z M490.9,572.9&#10;&#9;&#9;&#9;&#9;c-11.1,0-21.9,4.1-30.2,11.5c-9.8,8.7-15.4,21.2-15.4,34.3v32.5c0,0.7-0.1,16.7-7.8,34.3c-7.2,16.4-4.8,36.8,7.6,64.1&#10;&#9;&#9;&#9;&#9;c7.8,17.1,6.2,28.5,3.6,35c4.7-3.1,7.9-7.1,9.8-12.2c3.9-10.5,0.5-23.1-3.6-30.6c-7.3-13.6-4-33.2-3.4-36.2&#10;&#9;&#9;&#9;&#9;c-0.5-3.2-3-24.6,6.9-50.2c10.7-27.6,49.3-39.4,50.9-39.9c1-0.3,2.1,0.2,2.5,1.2c17.7,44.7,61.3,57.5,94.7,60.2&#10;&#9;&#9;&#9;&#9;c13.3,1.1,24.2,10.4,27.9,22.7c2.1-4.9,5.6-10.1,11.4-11.7v-61c0-37.6-24.8-71-60.2-81.3c-0.8-0.2-1.7-0.5-2.5-0.7&#10;&#9;&#9;&#9;&#9;c-46.7-12-77.6,12.1-83.1,27.1c-0.3,0.9-1.3,1.5-2.3,1.3c0,0-0.6-0.1-1.6-0.2C494.3,573,492.6,572.9,490.9,572.9z"/>
		</g>
<g id="XMLID_646_" transform="matrix(1, 0, 0, 1, -375.04180908203125, -527.0473937988281)">
			<path id="XMLID_627_" fill="#713517" d="M144.4,707.8c-1,0-1.9-0.7-2-1.7c0-0.1,0-0.3-0.1-0.6c-0.4-2.2-2.3-10.9-9.3-14.8&#10;&#9;&#9;&#9;&#9;c-0.6-0.4-1-1-1-1.8v-70.1c0-14.3,6.1-27.9,16.7-37.4c10.5-9.4,24.6-13.9,38.6-12.3c0,0,0.1,0,0.1,0c7.4-16.7,39-40.6,87.3-28.1&#10;&#9;&#9;&#9;&#9;c0.9,0.2,1.8,0.5,2.7,0.7c37.2,10.7,63.2,45.8,63.2,85.2v23.8c1.5,3.4,13.6,29.8,33.6,25.1c0.9-0.2,1.8,0.2,2.3,1&#10;&#9;&#9;&#9;&#9;c0.4,0.8,0.3,1.8-0.3,2.4c-1.1,1.1-26.4,26.1-61.5,23.9c-23.2-1.5-48.5-10.2-69.3-23.9c-16.6-10.9-37.8-30-46.1-59.2&#10;&#9;&#9;&#9;&#9;c-8,2.8-37.6,14.5-46.2,36.8c-9.3,23.9-7.1,44.5-6.7,47.9c0.1,0.3,0.1,0.6,0.1,0.6c0.1,1.1-0.7,2.1-1.8,2.3&#10;&#9;&#9;&#9;&#9;C144.5,707.8,144.5,707.8,144.4,707.8z M200.6,615.5c0.4,0,0.7,0.1,1,0.3c0.5,0.3,0.8,0.7,1,1.3c12.3,47.7,66.7,79.3,112.2,82.2&#10;&#9;&#9;&#9;&#9;c24.7,1.6,44.8-11.6,53.6-18.5c-20.4-0.7-31.3-27.4-31.8-28.6c-0.1-0.2-0.1-0.5-0.1-0.8V627c0-37.6-24.8-71-60.2-81.3&#10;&#9;&#9;&#9;&#9;c-0.8-0.2-1.7-0.5-2.5-0.7c-46.7-12-77.6,12.1-83.1,27.1c-0.3,0.9-1.3,1.5-2.3,1.3c0,0-0.6-0.1-1.6-0.2&#10;&#9;&#9;&#9;&#9;c-12.8-1.5-25.7,2.6-35.4,11.2c-9.8,8.7-15.4,21.2-15.4,34.3v68.9c2.4,1.5,4.2,3.5,5.6,5.5c0.2-9.3,1.7-22.8,7.5-37.7&#10;&#9;&#9;&#9;&#9;c10.7-27.6,49.3-39.4,50.9-39.9C200.2,615.5,200.4,615.5,200.6,615.5z"/>
		</g>
</svg>