<?xml version="1.0" encoding="utf-8"?>
<svg id="master-artboard" viewBox="0 0 350 350" version="1.0" xmlns="http://www.w3.org/2000/svg" x="0px" y="0px" width="350px" height="350px" enable-background="new 0 0 1400 980"><rect id="ee-background" x="0" y="0" width="350" height="350" style="fill: white; fill-opacity: 0; pointer-events: none;"/>



















<path id="XMLID_1120_" fill="#713517" d="M1043.9,734.7c-6.7,0-13.2-2.7-18.6-7.9c-6.9-6.7-10.6-16.1-10.1-25.9&#10;&#9;&#9;&#9;c0.3-6.6,2.3-10.9,5.9-13c5-2.8,10.9,0.2,11.2,0.3l-1.9,3.6c0,0-4.2-2.1-7.2-0.4c-2.8,1.6-3.6,6.1-3.8,9.6&#10;&#9;&#9;&#9;c-0.4,8.5,2.9,17,8.8,22.7c5,4.8,11.3,7.2,17.6,6.6l0.4,4.1C1045.3,734.7,1044.6,734.7,1043.9,734.7z" transform="matrix(1, 0, 0, 1, -666.2674255371094, -522.7855224609375)"/>
<g id="XMLID_681_" transform="matrix(1, 0, 0, 1, -666.2674255371094, -522.7855224609375)">
		<path d="M 752 727.9000244140625 L 752 792 L 942.0999755859375 792 L 942.0999755859375 729.0999755859375 Z" id="XMLID_1099_" fill="#CD5227"/>
	</g><path id="XMLID_1101_" fill="#713517" d="M942.1,794.1H752c-1.1,0-2.1-0.9-2.1-2.1v-64.1h4.1v62h186v-60.9h4.1v63&#10;&#9;&#9;&#9;C944.2,793.2,943.3,794.1,942.1,794.1z" transform="matrix(1, 0, 0, 1, -666.2674255371094, -522.7855224609375)"/><g id="XMLID_822_" transform="matrix(1, 0, 0, 1, -666.2674255371094, -522.7855224609375)">
			<path id="XMLID_1228_" fill="#F9C68C" d="M942.4,690.1c0,0,13.1-6.8,14,10.9c0.9,17.8-13.1,32.9-28.7,31.5"/>
		</g><path id="XMLID_1100_" fill="#713517" d="M929.8,734.7c-0.7,0-1.5,0-2.2-0.1l0.4-4.1c6.3,0.6,12.5-1.8,17.6-6.6&#10;&#9;&#9;&#9;&#9;c6-5.7,9.3-14.2,8.8-22.7c-0.2-3.5-1-8-3.8-9.6c-3-1.7-7.2,0.4-7.2,0.4l-1.9-3.6c0.2-0.1,6.2-3.1,11.2-0.3c3.6,2,5.5,6.4,5.9,13&#10;&#9;&#9;&#9;&#9;c0.5,9.8-3.2,19.2-10.1,25.9C943.1,731.9,936.6,734.7,929.8,734.7z" transform="matrix(1, 0, 0, 1, -666.2674255371094, -522.7855224609375)"/><path id="XMLID_1085_" fill="#DC4647" d="M771.7,854.5h152.4v0c0-30.2-24.5-54.7-54.7-54.7h-43&#10;&#9;&#9;&#9;&#9;C796.2,799.7,771.7,824.3,771.7,854.5L771.7,854.5z" transform="matrix(1, 0, 0, 1, -666.2674255371094, -522.7855224609375)"/><path id="XMLID_1096_" fill="#713517" d="M926.2,856.5H769.7v-2.1c0-31.3,25.5-56.8,56.8-56.8h43c31.3,0,56.8,25.5,56.8,56.8&#10;&#9;&#9;&#9;&#9;V856.5z M773.8,852.4h148.2c-1.1-28.1-24.3-50.6-52.6-50.6h-43C798.1,801.8,774.9,824.3,773.8,852.4z" transform="matrix(1, 0, 0, 1, -666.2674255371094, -522.7855224609375)"/><path id="XMLID_1227_" fill="#F9C68C" d="M830.5,798.4v-23.6h34.8v23.6C865.3,820.5,830.5,820.5,830.5,798.4z" transform="matrix(1, 0, 0, 1, -666.2674255371094, -522.7855224609375)"/><path id="XMLID_1093_" fill="#713517" d="M847.9,817c-9.7,0-19.4-6.4-19.4-18.6v-25.7h38.9v25.7C867.4,810.6,857.6,817,847.9,817&#10;&#9;&#9;&#9;&#9;z M832.6,776.8v21.6c0,10,8,14.5,15.3,14.5c7.4,0,15.3-4.5,15.3-14.5v-21.6H832.6z" transform="matrix(1, 0, 0, 1, -666.2674255371094, -522.7855224609375)"/><path id="XMLID_1226_" fill="#F9C68C" d="M753.5,690.1c0,0-13.1-6.8-14,10.9c-0.9,17.8,13.1,32.9,28.7,31.5" transform="matrix(1, 0, 0, 1, -666.2674255371094, -522.7855224609375)"/><path id="XMLID_1225_" fill="#F9C68C" d="M753.5,677.3c0,52.1,42.3,110.9,94.5,110.9c52.2,0,94.5-58.7,94.5-110.9&#10;&#9;&#9;&#9;&#9;s-42.3-77.9-94.5-77.9C795.8,599.4,753.5,625.2,753.5,677.3z" transform="matrix(1, 0, 0, 1, -666.2674255371094, -522.7855224609375)"/><path id="XMLID_1090_" fill="#713517" d="M847.9,790.2c-54.4,0-96.5-60.7-96.5-112.9c0-25.2,9.8-46,28.5-60.1&#10;&#9;&#9;&#9;&#9;c17.1-13,40.6-19.8,68-19.8c27.4,0,50.9,6.9,68,19.8c18.6,14.1,28.5,34.9,28.5,60.1C944.5,729.5,902.3,790.2,847.9,790.2z&#10;&#9;&#9;&#9;&#9; M847.9,601.5c-44.7,0-92.4,19.9-92.4,75.8c0,25,10.2,52.6,27.2,73.7c18.3,22.6,41.4,35.1,65.2,35.1c23.8,0,46.9-12.5,65.2-35.1&#10;&#9;&#9;&#9;&#9;c17-21.1,27.2-48.7,27.2-73.7C940.4,621.4,892.6,601.5,847.9,601.5z" transform="matrix(1, 0, 0, 1, -666.2674255371094, -522.7855224609375)"/><path id="XMLID_1089_" fill="#713517" d="M766,734.7c-6.7,0-13.2-2.7-18.6-7.9c-6.9-6.7-10.6-16.1-10.1-25.9&#10;&#9;&#9;&#9;&#9;c0.3-6.6,2.3-10.9,5.9-13c5-2.8,10.9,0.2,11.2,0.3l-1.9,3.6c0,0-4.2-2.1-7.2-0.4c-2.8,1.6-3.6,6.1-3.8,9.6&#10;&#9;&#9;&#9;&#9;c-0.4,8.5,2.9,17,8.8,22.7c5,4.8,11.3,7.2,17.6,6.6l0.4,4.1C767.5,734.7,766.8,734.7,766,734.7z" transform="matrix(1, 0, 0, 1, -666.2674255371094, -522.7855224609375)"/><g id="XMLID_709_" transform="matrix(1, 0, 0, 1, -666.2674255371094, -522.7855224609375)">
				<path d="M 890.000012 696.599976 A 6.8 6.8 0 0 1 883.200012 703.399976 A 6.8 6.8 0 0 1 876.400012 696.599976 A 6.8 6.8 0 0 1 883.200012 689.799975 A 6.8 6.8 0 0 1 890.000012 696.599976 Z" id="XMLID_1224_" fill="#713517"/>
			</g><path d="M 819.500012 696.599976 A 6.8 6.8 0 0 1 812.700012 703.399976 A 6.8 6.8 0 0 1 805.900012 696.599976 A 6.8 6.8 0 0 1 812.700012 689.799975 A 6.8 6.8 0 0 1 819.500012 696.599976 Z" id="XMLID_1223_" fill="#713517" transform="matrix(1, 0, 0, 1, -666.2674255371094, -522.7855224609375)"/><g id="XMLID_701_" transform="matrix(1, 0, 0, 1, -666.2674255371094, -522.7855224609375)">
				<path id="XMLID_1222_" fill="#713517" d="M876.3,740.9h-56.8c0,0,4.6,24.3,28.4,24.4C870.9,765.4,876.3,740.9,876.3,740.9z"/>
			</g><path id="XMLID_1221_" fill="#EF5353" d="M866.6,758.1c0,0-7-8.2-20.7-7.4c-13.7,0.8-17.9,6.3-17.9,6.3s4.3,9.2,18.3,8.3&#10;&#9;&#9;&#9;&#9;&#9;C860.1,764.4,866.6,758.1,866.6,758.1z" transform="matrix(1, 0, 0, 1, -666.2674255371094, -522.7855224609375)"/><path id="XMLID_1086_" fill="#713517" d="M848.1,767.4c-0.1,0-0.1,0-0.1,0c-25.2-0.1-30.4-25.8-30.4-26.1c-0.1-0.6,0-1.2,0.4-1.7&#10;&#9;&#9;&#9;&#9;s1-0.7,1.6-0.7h56.8c0.6,0,1.2,0.3,1.6,0.8c0.4,0.5,0.5,1.1,0.4,1.7C878.3,741.6,872.3,767.4,848.1,767.4z M822.2,743&#10;&#9;&#9;&#9;&#9;c1.8,5.9,8.1,20.2,25.8,20.3c0,0,0.1,0,0.1,0c16.7,0,23.4-14.4,25.5-20.3H822.2z" transform="matrix(1, 0, 0, 1, -666.2674255371094, -522.7855224609375)"/><path d="M 851.000024 717.5 A 3.1 3.1 0 0 1 847.900024 720.6 A 3.1 3.1 0 0 1 844.800025 717.5 A 3.1 3.1 0 0 1 847.900024 714.4 A 3.1 3.1 0 0 1 851.000024 717.5 Z" id="XMLID_1220_" fill="#EF5353" transform="matrix(1, 0, 0, 1, -666.2674255371094, -522.7855224609375)"/><g id="XMLID_685_" transform="matrix(1, 0, 0, 1, -666.2674255371094, -522.7855224609375)">
				<path id="XMLID_868_" fill="#F3712A" d="M744.3,689.7V627c0-38.3,24.9-72.6,61.7-83.2c0.9-0.2,1.7-0.5,2.6-0.7&#10;&#9;&#9;&#9;&#9;&#9;c49.3-12.7,80.1,13.3,85.5,28.4c0,0,0.6-0.1,1.7-0.2c28.3-3.3,53.1,19.1,53.1,47.6V686v2.9c-9.1,5.1-10.4,16.9-10.4,16.9&#10;&#9;&#9;&#9;&#9;&#9;s3.7-22.6-6.7-49.5c-10.5-27-49.6-38.7-49.6-38.7c-12,28.5-41.9,64.5-116.6,62l-7.7-0.4l0.5,30.2&#10;&#9;&#9;&#9;&#9;&#9;C758.4,709.3,755.6,691.1,744.3,689.7z"/>
			</g><path id="XMLID_1082_" fill="#713517" d="M758.4,711.4c-1,0-1.9-0.7-2-1.7c0-0.2-2.7-16.7-12.4-17.8c-1-0.1-1.8-1-1.8-2V627&#10;&#9;&#9;&#9;&#9;&#9;c0-39.4,26-74.5,63.2-85.2c0.9-0.3,1.8-0.5,2.7-0.7c48.4-12.5,79.9,11.4,87.3,28.1c0,0,0.1,0,0.1,0c14-1.6,28,2.9,38.6,12.3&#10;&#9;&#9;&#9;&#9;&#9;c10.6,9.5,16.7,23.1,16.7,37.4v70.1c0,0.7-0.4,1.4-1,1.8c-7,4-8.9,12.7-9.3,14.8c0,0.3-0.1,0.5-0.1,0.6&#10;&#9;&#9;&#9;&#9;&#9;c-0.2,1.1-1.2,1.9-2.3,1.7c-1.1-0.2-1.9-1.2-1.8-2.3c0-0.1,0-0.3,0.1-0.6c0.5-3.5,2.6-24-6.7-47.9&#10;&#9;&#9;&#9;&#9;&#9;c-8.8-22.5-38.9-34.3-46.5-36.9c-12.7,28.8-42.2,61.6-110.3,61.6c-2.4,0-4.9,0-7.5-0.1l-5.5-0.3l0.4,28c0,1.1-0.8,2-1.9,2.1&#10;&#9;&#9;&#9;&#9;&#9;C758.5,711.4,758.5,711.4,758.4,711.4z M746.3,688.1c4.5,1.2,7.7,4.8,9.8,8.6l-0.3-17.5c0-0.6,0.2-1.1,0.6-1.5&#10;&#9;&#9;&#9;&#9;&#9;c0.4-0.4,0.9-0.6,1.5-0.6l7.7,0.4c72.5,2.5,102.3-31.7,114.6-60.7c0.4-1,1.5-1.5,2.5-1.2c1.6,0.5,40.2,12.3,50.9,39.9&#10;&#9;&#9;&#9;&#9;&#9;c5.8,14.9,7.3,28.4,7.5,37.7c1.4-2,3.3-4,5.6-5.5v-68.9c0-13.1-5.6-25.6-15.4-34.3c-9.7-8.6-22.6-12.7-35.4-11.2&#10;&#9;&#9;&#9;&#9;&#9;c-1,0.1-1.5,0.2-1.6,0.2c-1,0.2-1.9-0.4-2.3-1.3c-5.4-15-36.3-39.1-83.1-27.1c-0.9,0.2-1.7,0.5-2.5,0.7&#10;&#9;&#9;&#9;&#9;&#9;c-35.5,10.2-60.2,43.6-60.2,81.3V688.1z" transform="matrix(1, 0, 0, 1, -666.2674255371094, -522.7855224609375)"/>
<g id="XMLID_679_" transform="matrix(1, 0, 0, 1, -666.2674255371094, -522.7855224609375)">
		<path id="XMLID_1219_" fill="#723F2D" d="M619.1,740.9c0,0,17.5,9.8,12.5,39.4c-5,29.6,1.8,54.3,35.6,56.1&#10;&#9;&#9;&#9;c0,0-47.5,16.1-66.1-21.5c-18.7-37.6-10-49.7-25.5-57"/>
	</g><path id="XMLID_870_" fill="#713517" d="M644.5,841.8c-15.5,0-34.8-4.8-45.3-26c-8.6-17.3-11.5-29.2-13.5-37.9&#10;&#9;&#9;&#9;c-2.4-10-3.5-14.6-11-18.1l1.7-3.7c9.3,4.4,10.8,10.6,13.3,20.9c2,8.5,4.8,20.1,13.2,37.1c12.6,25.4,38.7,25.3,53.3,22.9&#10;&#9;&#9;&#9;c-8.4-2.1-15-6-19.7-11.9c-8-9.9-10.3-25.1-6.9-45.1c4.7-27.9-11.3-37.2-11.5-37.3l2-3.6c0.8,0.4,18.7,10.8,13.5,41.6&#10;&#9;&#9;&#9;c-3.2,18.8-1.1,32.8,6.1,41.8c5.8,7.2,15.1,11.2,27.6,11.9c1,0.1,1.8,0.8,1.9,1.8c0.1,1-0.4,1.9-1.4,2.2&#10;&#9;&#9;&#9;C667.6,838.5,657.4,841.8,644.5,841.8z" transform="matrix(1, 0, 0, 1, -666.2674255371094, -522.7855224609375)"/>

</svg>