<?xml version="1.0" encoding="utf-8"?>
<svg id="master-artboard" viewBox="0 0 350 350" version="1.0" xmlns="http://www.w3.org/2000/svg" x="0px" y="0px" width="350px" height="350px" enable-background="new 0 0 1400 980"><rect id="ee-background" x="0" y="0" width="350" height="350" style="fill: white; fill-opacity: 0; pointer-events: none;"/>



















<g id="XMLID_855_" transform="matrix(1, 0, 0, 1, -958.9136962890625, -521.3648986816406)">
		<path id="XMLID_1238_" fill="#F9C68C" d="M1031.3,690.1c0,0-13.1-6.8-14,10.9c-0.9,17.8,13.1,32.9,28.7,31.5"/>
	</g><path id="XMLID_1120_" fill="#713517" d="M1043.9,734.7c-6.7,0-13.2-2.7-18.6-7.9c-6.9-6.7-10.6-16.1-10.1-25.9&#10;&#9;&#9;&#9;c0.3-6.6,2.3-10.9,5.9-13c5-2.8,10.9,0.2,11.2,0.3l-1.9,3.6c0,0-4.2-2.1-7.2-0.4c-2.8,1.6-3.6,6.1-3.8,9.6&#10;&#9;&#9;&#9;c-0.4,8.5,2.9,17,8.8,22.7c5,4.8,11.3,7.2,17.6,6.6l0.4,4.1C1045.3,734.7,1044.6,734.7,1043.9,734.7z" transform="matrix(1, 0, 0, 1, -958.9136962890625, -521.3648986816406)"/><path id="XMLID_1102_" fill="#40AFB0" d="M1202,854.5h-152.4v0c0-30.2,24.5-54.7,54.7-54.7h43C1177.5,799.7,1202,824.3,1202,854.5&#10;&#9;&#9;&#9;L1202,854.5z" transform="matrix(1, 0, 0, 1, -958.9136962890625, -521.3648986816406)"/><path id="XMLID_1116_" fill="#713517" d="M1204,856.5h-156.5v-2.1c0-31.3,25.5-56.8,56.8-56.8h43c31.3,0,56.8,25.5,56.8,56.8&#10;&#9;&#9;&#9;V856.5z M1051.6,852.4h148.2c-1.1-28.1-24.3-50.6-52.6-50.6h-43C1075.9,801.8,1052.7,824.3,1051.6,852.4z" transform="matrix(1, 0, 0, 1, -958.9136962890625, -521.3648986816406)"/><path id="XMLID_1237_" fill="#F9C68C" d="M1143.1,798.4v-23.6h-34.8v23.6C1108.4,820.5,1143.1,820.5,1143.1,798.4z" transform="matrix(1, 0, 0, 1, -958.9136962890625, -521.3648986816406)"/><path id="XMLID_1113_" fill="#713517" d="M1125.8,817c-9.7,0-19.4-6.4-19.4-18.6v-25.7h38.9v25.7&#10;&#9;&#9;&#9;C1145.2,810.6,1135.4,817,1125.8,817z M1110.4,776.8v21.6c0,10,8,14.5,15.3,14.5c7.4,0,15.3-4.5,15.3-14.5v-21.6H1110.4z" transform="matrix(1, 0, 0, 1, -958.9136962890625, -521.3648986816406)"/><path id="XMLID_1236_" fill="#F9C68C" d="M1220.2,690.1c0,0,13.1-6.8,14,10.9c0.9,17.8-13.1,32.9-28.7,31.5" transform="matrix(1, 0, 0, 1, -958.9136962890625, -521.3648986816406)"/><path id="XMLID_1235_" fill="#F9C68C" d="M1220.2,677.3c0,52.1-42.3,110.9-94.5,110.9s-94.5-58.7-94.5-110.9s42.3-77.9,94.5-77.9&#10;&#9;&#9;&#9;S1220.2,625.2,1220.2,677.3z" transform="matrix(1, 0, 0, 1, -958.9136962890625, -521.3648986816406)"/><path id="XMLID_1110_" fill="#713517" d="M1125.8,790.2c-54.4,0-96.5-60.7-96.5-112.9c0-25.2,9.8-46,28.5-60.1&#10;&#9;&#9;&#9;c17.1-13,40.6-19.8,68-19.8s50.9,6.9,68,19.8c18.6,14.1,28.5,34.9,28.5,60.1C1222.3,729.5,1180.1,790.2,1125.8,790.2z&#10;&#9;&#9;&#9; M1125.8,601.5c-44.7,0-92.4,19.9-92.4,75.8c0,25,10.2,52.6,27.2,73.7c18.3,22.6,41.4,35.1,65.2,35.1c23.8,0,46.9-12.5,65.2-35.1&#10;&#9;&#9;&#9;c17-21.1,27.2-48.7,27.2-73.7C1218.2,621.4,1170.4,601.5,1125.8,601.5z" transform="matrix(1, 0, 0, 1, -958.9136962890625, -521.3648986816406)"/><path id="XMLID_1109_" fill="#713517" d="M1207.6,734.7c-0.7,0-1.5,0-2.2-0.1l0.4-4.1c6.3,0.6,12.5-1.8,17.6-6.6&#10;&#9;&#9;&#9;c6-5.7,9.3-14.2,8.8-22.7c-0.2-3.5-1-8-3.8-9.6c-3-1.7-7.2,0.4-7.2,0.4l-1.9-3.6c0.2-0.1,6.2-3.1,11.2-0.3c3.6,2,5.5,6.4,5.9,13&#10;&#9;&#9;&#9;c0.5,9.8-3.2,19.2-10.1,25.9C1220.9,731.9,1214.4,734.7,1207.6,734.7z" transform="matrix(1, 0, 0, 1, -958.9136962890625, -521.3648986816406)"/><g id="XMLID_843_" transform="matrix(1, 0, 0, 1, -958.9136962890625, -521.3648986816406)">
			<path d="M 1097.3 696.599976 A 6.8 6.8 0 0 1 1090.5 703.399976 A 6.8 6.8 0 0 1 1083.7 696.599976 A 6.8 6.8 0 0 1 1090.5 689.799975 A 6.8 6.8 0 0 1 1097.3 696.599976 Z" id="XMLID_1234_" fill="#713517"/>
		</g><path d="M 1167.8 696.599976 A 6.8 6.8 0 0 1 1161 703.399976 A 6.8 6.8 0 0 1 1154.2 696.599976 A 6.8 6.8 0 0 1 1161 689.799975 A 6.8 6.8 0 0 1 1167.8 696.599976 Z" id="XMLID_1233_" fill="#713517" transform="matrix(1, 0, 0, 1, -958.9136962890625, -521.3648986816406)"/><g id="XMLID_840_" transform="matrix(1, 0, 0, 1, -958.9136962890625, -521.3648986816406)">
			<path id="XMLID_1232_" fill="#713517" d="M1097.4,740.9h56.8c0,0-4.6,24.3-28.4,24.4C1102.8,765.4,1097.4,740.9,1097.4,740.9z"/>
		</g><path id="XMLID_1231_" fill="#EF5353" d="M1107.1,758.1c0,0,7-8.2,20.7-7.4c13.7,0.8,17.9,6.3,17.9,6.3s-4.3,9.2-18.3,8.3&#10;&#9;&#9;&#9;&#9;C1113.6,764.4,1107.1,758.1,1107.1,758.1z" transform="matrix(1, 0, 0, 1, -958.9136962890625, -521.3648986816406)"/><path id="XMLID_1106_" fill="#713517" d="M1125.6,767.4c-24.2,0-30.2-25.7-30.3-26c-0.1-0.6,0-1.2,0.4-1.7c0.4-0.5,1-0.8,1.6-0.8&#10;&#9;&#9;&#9;h56.8c0.6,0,1.2,0.3,1.6,0.7c0.4,0.5,0.5,1.1,0.4,1.7c0,0.3-5.2,26-30.4,26.1C1125.7,767.4,1125.7,767.4,1125.6,767.4z&#10;&#9;&#9;&#9; M1100.1,743c2,5.9,8.6,20.3,25.5,20.3c0,0,0.1,0,0.1,0c17.7-0.1,23.9-14.4,25.8-20.3H1100.1z" transform="matrix(1, 0, 0, 1, -958.9136962890625, -521.3648986816406)"/><path d="M 1128.900049 717.5 A 3.1 3.1 0 0 1 1125.800049 720.6 A 3.1 3.1 0 0 1 1122.700049 717.5 A 3.1 3.1 0 0 1 1125.800049 714.4 A 3.1 3.1 0 0 1 1128.900049 717.5 Z" id="XMLID_1230_" fill="#EF5353" transform="matrix(1, 0, 0, 1, -958.9136962890625, -521.3648986816406)"/><g id="XMLID_677_" transform="matrix(1, 0, 0, 1, -958.9136962890625, -521.3648986816406)">
			<path id="XMLID_1229_" fill="#EBB148" d="M1035.2,705.7c0,0-1.3-11.8-10.4-16.9V686v-67.2c0-28.5,24.8-50.8,53.1-47.6&#10;&#9;&#9;&#9;&#9;c0,0,36.4-39.3,83.1-21c46.7,18.2,82.3,42.9,113.3,26.5c0,0-15.1,37.8-44.9,50.4v62.7c-11.3,1.4-14.1,19.6-14.1,19.6l0.5-30.2&#10;&#9;&#9;&#9;&#9;c0,0-98.5,0.2-124.2-61.6c0,0-7.8,28-30.6,44.4l-4.6-10.9C1056.3,651,1035.2,658.5,1035.2,705.7z"/>
		</g><g id="XMLID_703_" transform="matrix(1, 0, 0, 1, -958.9136962890625, -521.3648986816406)">
			<path id="XMLID_1103_" fill="#713517" d="M1215.3,711.4c-0.1,0-0.1,0-0.2,0c-1.1-0.1-1.9-1-1.9-2.1l0.4-28.1&#10;&#9;&#9;&#9;&#9;c-6.6-0.2-27.8-1.3-50.9-7.7c-34.8-9.6-59.1-27-70.9-50.4c-3.4,9-12.2,27.9-29.7,40.5c-0.5,0.4-1.2,0.5-1.8,0.3&#10;&#9;&#9;&#9;&#9;c-0.6-0.2-1.1-0.6-1.3-1.2l-3.7-8.9c-4.8,3.1-18,15-18,51.9c0,1.1-0.9,2-1.9,2c-1.1,0.1-2-0.7-2.2-1.8l0,0&#10;&#9;&#9;&#9;&#9;c0-0.1-1.3-10.8-9.4-15.3c-0.6-0.4-1-1-1-1.8v-70.1c0-14.3,6.1-27.9,16.7-37.4c10.3-9.2,23.9-13.7,37.6-12.4&#10;&#9;&#9;&#9;&#9;c5.5-5.4,40.8-37.9,84.6-20.8c10.6,4.1,20.5,8.5,30.1,12.8c32.6,14.5,58.4,26,81.6,13.7c0.8-0.4,1.7-0.3,2.3,0.3&#10;&#9;&#9;&#9;&#9;c0.6,0.6,0.9,1.5,0.5,2.3c-0.6,1.6-15.3,37.8-44.8,51v61.4c0,1-0.8,1.9-1.8,2c-9.6,1.2-12.3,17.7-12.4,17.8&#10;&#9;&#9;&#9;&#9;C1217.1,710.6,1216.3,711.4,1215.3,711.4z M1215.7,677.1c0.5,0,1.1,0.2,1.5,0.6c0.4,0.4,0.6,0.9,0.6,1.5l-0.3,17.5&#10;&#9;&#9;&#9;&#9;c2.2-3.8,5.3-7.4,9.8-8.6v-61c0-0.8,0.5-1.6,1.3-1.9c22.4-9.4,36.4-33.8,41.6-44.3c-23.6,9.2-49.9-2.6-80-16&#10;&#9;&#9;&#9;&#9;c-9.5-4.2-19.4-8.6-29.9-12.7c-44.9-17.5-80.5,20.1-80.9,20.5c-0.4,0.5-1.1,0.7-1.7,0.6c-12.8-1.5-25.7,2.6-35.4,11.2&#10;&#9;&#9;&#9;&#9;c-9.8,8.7-15.4,21.2-15.4,34.3v68.9c3,1.9,5.1,4.5,6.7,7.1c2.9-38.5,21.2-45.5,22.1-45.8c1-0.4,2.2,0.1,2.6,1.1l3.5,8.5&#10;&#9;&#9;&#9;&#9;c20.4-16,27.7-41.5,27.8-41.7c0.2-0.8,1-1.4,1.9-1.5c0.9-0.1,1.7,0.5,2,1.3C1118.2,676.5,1214.3,677.1,1215.7,677.1&#10;&#9;&#9;&#9;&#9;C1215.7,677.1,1215.7,677.1,1215.7,677.1z"/>
		</g>



</svg>